<svg xmlns="http://www.w3.org/2000/svg" xmlns:xlink="http://www.w3.org/1999/xlink" width="218" height="139" viewBox="0 0 218 139">
  <defs>
    <clipPath id="clip-_2022">
      <rect width="218" height="139"/>
    </clipPath>
  </defs>
  <g id="_2022" data-name="2022" clip-path="url(#clip-_2022)">
    <g id="组_31" data-name="组 31" transform="translate(-25 -101)">
      <text id="的一封信_请查收_" data-name="的一封信，请查收！" transform="translate(26 231)" fill="#005077" font-size="24" font-family="PingFangSC-Semibold, PingFang SC" font-weight="600"><tspan x="0" y="0">的一封信，请查收！</tspan></text>
      <text id="年" transform="translate(172 181)" fill="#005077" font-size="24" font-family="PingFangSC-Semibold, PingFang SC" font-weight="600"><tspan x="0" y="0">年</tspan></text>
      <text id="来自" transform="translate(26 127)" fill="#005077" font-size="24" font-family="PingFangSC-Semibold, PingFang SC" font-weight="600"><tspan x="0" y="0">来自</tspan></text>
      <path id="路径_15" data-name="路径 15" d="M438.659,616c-5.954,0-10.5-2-13.509-5.954-2.741-3.617-4.131-8.79-4.131-15.375s1.391-11.782,4.135-15.44c3.007-3.946,7.552-5.95,13.506-5.95s10.5,2,13.509,5.954c2.74,3.654,4.131,8.849,4.131,15.435s-1.391,11.758-4.133,15.376C449.158,614,444.613,616,438.659,616Zm0-33.318a5.435,5.435,0,0,0-5.4,3.942,23.943,23.943,0,0,0-1,8.048,23.36,23.36,0,0,0,1,8,5.426,5.426,0,0,0,5.393,3.924,5.537,5.537,0,0,0,5.455-3.93,24.746,24.746,0,0,0,.941-8,25.383,25.383,0,0,0-.936-8.045A5.544,5.544,0,0,0,438.659,582.68Zm57.668,32.6c-.193-1.962-.288-3.95-.284-5.918,0-5.576,3.028-10.371,9-14.252.779-.506,1.911-1.2,3.366-2.067,1.486-.843,2.477-1.438,3.018-1.813,2.172-1.417,3.236-2.75,3.236-4.062,0-1.255-.552-3.362-4.254-3.362a34.014,34.014,0,0,0-12.524,2.424v-9.14a22.212,22.212,0,0,1,12.4-3.759c.156,0,.312,0,.469,0,4.525,0,8.2,1.237,10.944,3.679a11.626,11.626,0,0,1,4.035,9.124c0,4.954-2.519,9.013-7.7,12.427l-5.554,3.189c-2.01,1.169-2.932,2.1-2.99,3.038l-.05.79h16.41v9.7Zm-34.686,0c-.192-1.962-.288-3.95-.284-5.918,0-5.576,3.029-10.371,9-14.252.778-.506,1.91-1.2,3.366-2.067,1.485-.843,2.477-1.438,3.018-1.813,2.172-1.417,3.236-2.75,3.236-4.062,0-1.255-.553-3.362-4.254-3.362a34.015,34.015,0,0,0-12.524,2.424v-9.14a22.212,22.212,0,0,1,12.4-3.759c.156,0,.312,0,.469,0,4.525,0,8.2,1.237,10.944,3.679a11.62,11.62,0,0,1,4.035,9.123c0,4.955-2.518,9.014-7.7,12.428l-5.553,3.189c-2.01,1.169-2.931,2.1-2.99,3.037l-.05.791h16.41v9.7Zm-74.786,0c-.192-1.962-.288-3.95-.284-5.918,0-5.576,3.029-10.371,9-14.252.779-.506,1.911-1.2,3.366-2.067,1.487-.844,2.479-1.44,3.018-1.813,2.172-1.417,3.236-2.75,3.236-4.062,0-1.255-.553-3.362-4.254-3.362a34.014,34.014,0,0,0-12.524,2.424v-9.14a22.212,22.212,0,0,1,12.4-3.759c.156,0,.312,0,.469,0,4.525,0,8.2,1.237,10.944,3.679a11.623,11.623,0,0,1,4.035,9.123c0,4.955-2.518,9.014-7.7,12.428l-5.554,3.189c-2.01,1.169-2.932,2.1-2.99,3.038l-.049.79h16.409v9.7Z" transform="translate(-360.57 -428.28)" fill="#005077"/>
    </g>
  </g>
</svg>
