<svg xmlns="http://www.w3.org/2000/svg" xmlns:xlink="http://www.w3.org/1999/xlink" width="375" height="812" viewBox="0 0 375 812">
  <defs>
    <clipPath id="clip-path">
      <rect id="矩形_5268" data-name="矩形 5268" width="375" height="812" fill="#fefdfb"/>
    </clipPath>
    <clipPath id="clip-年度报告4-bg">
      <rect width="375" height="812"/>
    </clipPath>
  </defs>
  <g id="年度报告4-bg" clip-path="url(#clip-年度报告4-bg)">
    <rect id="矩形_5269" data-name="矩形 5269" width="375" height="812" fill="#fefdfb"/>
    <g id="蒙版组_6" data-name="蒙版组 6" clip-path="url(#clip-path)">
      <g id="组_53400" data-name="组 53400">
        <ellipse id="椭圆_3" data-name="椭圆 3" cx="247.712" cy="327.484" rx="247.712" ry="327.484" transform="matrix(0.545, 0.839, -0.839, 0.545, 327.238, -67.308)" fill="#e6f0fc"/>
        <path id="路径_64144" data-name="路径 64144" d="M138.881.011c51.461,0,93.178,69.388,93.178,154.982s-41.717,154.982-93.178,154.982S0,168.4,0,82.809,87.42.011,138.881.011Z" transform="matrix(0.545, 0.839, -0.839, 0.545, 454.314, -100.176)" fill="#d9cdf1" opacity="0.597"/>
        <path id="路径_64145" data-name="路径 64145" d="M138.881.011c51.461,0,254.563,79.721,254.563,165.315s-203.1,144.648-254.563,144.648S0,168.4,0,82.809,87.42.011,138.881.011Z" transform="matrix(0.545, 0.839, -0.839, 0.545, 470.677, 370)" fill="#4ec8f9" opacity="0.099"/>
        <path id="路径_64143" data-name="路径 64143" d="M277.139-40.785c117.595,0,252.053,246.913,160.317,256.256S268.318,204.943,168.882,276.58,0,229.967,0,148.148,159.544-40.785,277.139-40.785Z" transform="matrix(0.978, -0.208, 0.208, 0.978, -183.051, -10.176)" fill="#b1c1f3" opacity="0.597"/>
      </g>
    </g>
    <g id="组_53401" data-name="组 53401" transform="translate(-6 -1)">
      <text id="身心泰然出院去" transform="translate(26 459)" fill="#606bff" font-size="40" font-family="YouSheBiaoTiHei" opacity="0.2"><tspan x="0" y="0">身心泰然出院去</tspan></text>
      <text id="临别依依语叮咛" transform="translate(103 511)" fill="#606bff" font-size="40" font-family="YouSheBiaoTiHei" opacity="0.2"><tspan x="0" y="0">临别依依语叮咛</tspan></text>
    </g>
    <g id="组_53363" data-name="组 53363" transform="translate(0 -21)">
      <g id="组_53345" data-name="组 53345" transform="translate(-1333.281 -337.462)">
        <path id="路径_64150" data-name="路径 64150" d="M383.78,259.654s-7.707-78.335-80.49-92.124A121.325,121.325,0,0,1,235.738,129.8c-2.433-2.692-4.879-5.535-7.307-8.579-24.753-30.782-66.2-42.542-102.991-28.534a95.829,95.829,0,0,0-33.837,21.7,90,90,0,0,0-25.057,49.288c-2.95,18.17-10.408,48.784-27.653,56.9a26.486,26.486,0,0,0-4.855,2.9c-6.257,4.777-19.072,17.167-14.841,36.55Z" transform="translate(1319.923 825.509)" fill="#e0e8fa" opacity="0.6"/>
        <path id="路径_64151" data-name="路径 64151" d="M1230.065,275.682c0,7.092-23.1,13.225-56.815,16.254V259.43C1206.963,262.459,1230.065,268.592,1230.065,275.682Z" transform="translate(416.124 690.437)" fill="#a7c3ff"/>
        <path id="路径_64176" data-name="路径 64176" d="M62,882.448s-78.564,8.955,55.489,22.335c0,0,11.212.909-4.2,4.844-15.017,3.811-15.017,11.206,7.734,12.291,41.8,1.97,200.174,4.09,221-7.292,0,0,13.617-5.553-12.915-7.5-17.77-1.287-1.1-2.22,0-2.322,20.324-2.07,55.163-7.9,38.52-22.737Z" transform="translate(1303.669 203.17)" fill="#e0e8fa"/>
        <path id="路径_64178" data-name="路径 64178" d="M782.413,252.23c-11.958,0-23.481.354-34.163,1.011v41.118c10.712-.652,22.2-1.011,34.163-1.011,15.493,0,30.21.607,43.425,1.665V253.9C812.623,252.81,797.93,252.23,782.413,252.23Z" transform="translate(748.722 696.072)" fill="#cad8f8"/>
        <path id="路径_64179" data-name="路径 64179" d="M484.744,262.8v31.041c-29.758-3.2-49.6-8.96-49.6-15.521S454.986,266,484.744,262.8Z" transform="translate(993.756 687.8)" fill="#c8daff"/>
        <path id="路径_64180" data-name="路径 64180" d="M1158.512,255.113l-.8-5.3s6.657-2.7,13.417-1.489c0,0,7.657.531,7.407,2.372,0,0,.5,1.463-7.557.883-1.828-.126-2.1.2-2.079.707,0,0,.326,1.087,2.9,1.087a3.336,3.336,0,0,1,1.4.3h.026a.778.778,0,0,1-.2,1.463c-2.05.4-6.957,1.087-10.46-.354a4.225,4.225,0,0,0-2.152-.3,6.242,6.242,0,0,0-1.9.628Z" transform="translate(428.286 699.372)" fill="#fac897"/>
        <path id="路径_64181" data-name="路径 64181" d="M651.468,1006.273c21,0,38.018-1.3,38.018-2.9s-17.022-2.9-38.018-2.9-38.018,1.3-38.018,2.9S630.472,1006.273,651.468,1006.273Z" transform="translate(854.214 110.512)" fill="#bac2fc"/>
        <path id="路径_64182" data-name="路径 64182" d="M858.16,934.595s-1.6,5.351,4.055,8.681c0,0,5.705,2.826,3.9,6.436L846,942.663a5.367,5.367,0,0,1,2-4.114,8.791,8.791,0,0,0,3.179-4.04,6.547,6.547,0,0,0,.5-2.22Z" transform="translate(672.225 163.868)" fill="#b5cde2"/>
        <path id="路径_64183" data-name="路径 64183" d="M563.9,687.477s-5.531-.354-7.483,5.931c0,0-1.452,6.233-5.355,5.3l2.276-21.35a5.272,5.272,0,0,1,4.431,1.061,8.673,8.673,0,0,0,4.6,2.22,6.061,6.061,0,0,0,2.252,0Z" transform="translate(903.039 363.465)" fill="#b5cde2"/>
        <path id="路径_64184" data-name="路径 64184" d="M661.566,462.68s19.146,50.2-2.076,54.941c0,0-24.553,13.7-65.66,1.035l.276-7.57s35.589-.652,40.47-10.575c0,0-12.165-22.687-6.633-36.62Z" transform="translate(869.568 531.377)" fill="#0a2650"/>
        <path id="路径_64185" data-name="路径 64185" d="M766.263,519.62c-1.928-6.283,3.129-8.044,4.631-10.447a9.082,9.082,0,0,0,1.176-6.538c-1.026-5.275-4.029-22.485,5.755-28.012.25-.152,3.029,3.557,3.179,3.811,8.334,12.162,29.808,53.35,13.941,100.064l-8.684-1.818s1.676-35.078-10.653-51.282C775.6,525.4,769.492,521.866,766.263,519.62Z" transform="translate(734.964 522.034)" fill="#113b7b"/>
        <path id="路径_64186" data-name="路径 64186" d="M730.327,516.284c-6.507-.2-8.334-.933-15.167-3.811-8.934-8.479-19.372-17.439-12.362-38.992,0,0,7.434-14.056,24.753-4.894,0,0,.624.2,2.352,2.7C729.427,485.818,728.9,499.528,730.327,516.284Z" transform="translate(786.091 529.181)" fill="#c5c8dd"/>
        <path id="路径_64187" data-name="路径 64187" d="M1193,35.18a17.591,17.591,0,1,0-17.443-17.589A17.518,17.518,0,0,0,1193,35.18Z" transform="translate(414.316 893.462)" fill="#ffd593"/>
        <path id="路径_64188" data-name="路径 64188" d="M1200.3,40.493a15.547,15.547,0,1,0-15.417-15.545A15.48,15.48,0,0,0,1200.3,40.493Z" transform="translate(407.023 886.106)" fill="#ffe5c2"/>
        <path id="路径_64189" data-name="路径 64189" d="M1255.79,39.7v8.979h6.607" transform="translate(351.53 862.394)" fill="none" stroke="#fff" stroke-miterlimit="10" stroke-width="1.73"/>
        <path id="路径_64208" data-name="路径 64208" d="M790.583,17.414c-3.455-1.641-1.522-4.014-.376-7.5.326-1.161,1.452-3.155-.976-3.044a8.873,8.873,0,0,0-2.3,1.387s-10.286,7.192.552,16.178c0,0,1.45,12.517,8.51,14.637a84.192,84.192,0,0,1,4.479-8.3,26.676,26.676,0,0,1-4.8-2.876C792.762,25.489,795.014,19.863,790.583,17.414Z" transform="translate(721.906 888.086)" fill="#5b2f2e"/>
        <path id="路径_64209" data-name="路径 64209" d="M824.113,14.229c-.05,0-1.352-.983-1.4-.983,0,0-1.087-4.922-12.288-4.518,0,0-2.453-5.3-7.133-3.433a5.218,5.218,0,0,0-1.776,2.668c-1.126,3.479-2.076,8.5,1.376,10.145,4.4,2.448,1.452,8.127,4.348,10.523,1.522,1.3,3.729,2.07,5.557,3.1,1.626-2.392,3.929-4.24,6.707-2.322a4.8,4.8,0,0,0,.95,0l2.2-1.739a1.339,1.339,0,0,0,.435-.631C824.463,22.53,820.059,17.36,824.113,14.229Z" transform="translate(707.848 889.631)" fill="#a04b2e"/>
        <path id="路径_64210" data-name="路径 64210" d="M897.019,46.914a4.683,4.683,0,0,0,.176-2.044c-.15-1.061-.676-2.222-2.352-1.894-4.179,3.2.15,10-1.626,14.587a7.278,7.278,0,0,1-.726,1.615c1.726-.176,5.1-1.261,4.329-7.52A15.354,15.354,0,0,1,897.019,46.914Z" transform="translate(635.842 859.874)" fill="#5b1e09"/>
        <path id="路径_64211" data-name="路径 64211" d="M851.44,135.2a8.1,8.1,0,0,1,.6-4.642,19.883,19.883,0,0,1-3.7-2.248C848.138,130.7,849.188,134,851.44,135.2Z" transform="translate(670.409 793.049)" fill="#f29d59"/>
        <path id="路径_64212" data-name="路径 64212" d="M832.918,63.2l-.87-2.876a28.39,28.39,0,0,0-.409-6.823c-1.126-5.275-9.11,7.849-9.11,7.849s-1.109-2.92-3.579-2.287c-4.079,1.033-.324,7.647-.324,7.647.826,7.975-6.257,11.13-6.257,11.13,4.566,7.418,14.065,3.557,14.065,3.557a10.538,10.538,0,0,1-3.1-5.753c-2.279-1.187-3.3-4.492-3.1-6.866a19.932,19.932,0,0,0,3.7,2.248l.076-.152c4.255-.581,6.357-3.331,7.333-6.486l.95-.152a.785.785,0,0,0,.635-1.035Z" transform="translate(698.543 852.572)" fill="#fac897"/>
        <path id="路径_64177" data-name="路径 64177" d="M0,882.53H157.332" transform="translate(1363.877 202.81)" fill="none" stroke="#606bff" stroke-miterlimit="10" stroke-width="1.73" opacity="0.3"/>
        <path id="路径_64213" data-name="路径 64213" d="M754.086,202.264c.5-2.524,2.252-5.905,2.752-8.429,1.252-8.831,3.6-16.278-2.076-23.52a29.843,29.843,0,0,0-3.329-5.1c-1.7,1.522-4.783,1.868-7.986-1.3a8.178,8.178,0,0,1-1.087-1.522s-17.943,5.3-21.974,18.02l10.462,25.364L719.76,233.129a67.358,67.358,0,0,0,23.451,1.489,48.8,48.8,0,0,0,14.132-3.785C753.46,221.6,752.81,212.611,754.086,202.264Z" transform="translate(771.018 766.379)" fill="#fff"/>
        <path id="路径_64214" data-name="路径 64214" d="M869.4,220.547l6.833-34.787S866.119,173.8,862.866,173.47a4.483,4.483,0,0,1-1.226.935c.7.833,5.981,18.448,3.1,28.593-.5,2.524-2,5.048-2.5,7.573-1.252,10.334.826,20.279,4.7,29.545.976-.4,1.878-.783,2.7-1.187Z" transform="translate(659.985 757.708)" fill="#c5c8dd" opacity="0.235"/>
        <path id="路径_64215" data-name="路径 64215" d="M892.909,186.676c-3.455-3.642-15.117-14.839-25.629-13.528,0,0,10.686,12.417,3.129,44.747-3.579,15.343,7.657,27.432,11.888,42.727,0,0,.024-11.686-4.881-22.159-2.729-5.829-2.579-19.383,1.026-32.328a54.584,54.584,0,0,1,1.352-6.462c16.393,9.54,44.7,2.146,52.482-4.694l.217-5.729s-21.7,6.664-36.891-.581A9.351,9.351,0,0,1,892.909,186.676Z" transform="translate(655.571 758.043)" fill="#fff"/>
        <path id="路径_64216" data-name="路径 64216" d="M877.64,412.19a27.083,27.083,0,0,0,1.176,6.333,8.607,8.607,0,0,0,3.379-3.261Z" transform="translate(647.464 570.89)" fill="#04794a"/>
        <path id="路径_64217" data-name="路径 64217" d="M920.1,273.562c-.217,2.524-1.476,4.946-1.352,7.747.476-1.689,1-3.381,1.6-5.046,0,0,19.5,12.543,52.18-3.887l.124-3.3C956.682,277.825,936.96,282.722,920.1,273.562Z" transform="translate(615.299 682.893)" fill="#c5c8dd"/>
        <path id="路径_64218" data-name="路径 64218" d="M940.315,275.33l21.45.809-8.21,38.385-19.046-10.9Z" transform="translate(602.958 677.994)" fill="#626bf6"/>
        <path id="路径_64219" data-name="路径 64219" d="M946.987,281l21.448.809-8.21,38.385-19.046-10.9Z" transform="translate(597.738 673.557)" fill="#edf3ff"/>
        <path id="路径_64220" data-name="路径 64220" d="M956.861,287.17l21.474.833-8.21,38.361-19.046-10.9Z" transform="translate(589.991 668.728)" fill="#b7bbff"/>
        <path id="路径_64221" data-name="路径 64221" d="M962.074,292.86l21.448.833-8.208,38.361-19.054-10.9Z" transform="translate(585.937 664.275)" fill="#edf3ff"/>
        <path id="路径_64222" data-name="路径 64222" d="M931.683,275.33l27.205,6.916-8.044,37.8L923.8,313.741Z" transform="translate(611.34 677.994)" fill="#626bf6"/>
        <path id="路径_64223" data-name="路径 64223" d="M941.291,291.7l-6.781,33.213" transform="translate(602.958 665.183)" fill="none" stroke="#fff" stroke-linecap="round" stroke-linejoin="round" stroke-width="2.31"/>
        <path id="路径_64225" data-name="路径 64225" d="M918.39,212.42a20.544,20.544,0,0,1,1.576,10.8S922.654,216.534,918.39,212.42Z" transform="translate(615.573 727.226)" fill="#c5c8dd"/>
        <path id="路径_64226" data-name="路径 64226" d="M883.51,178.64l4.131,3.609-1.326,1.818,1.7,2.094s1.052,9.314.35,14.663" transform="translate(642.87 753.662)" fill="none" stroke="#c5c8dd" stroke-linecap="round" stroke-linejoin="round" stroke-width="2.31"/>
        <path id="路径_64227" data-name="路径 64227" d="M878.291,85.752l-2.852-.024a1.25,1.25,0,0,1,.026-2.5l2.853.024a1.239,1.239,0,0,1,1.226,1.263A1.272,1.272,0,0,1,878.291,85.752Z" transform="translate(650.115 828.328)" fill="none" stroke="#fff" stroke-linecap="round" stroke-linejoin="round" stroke-width="2.31"/>
        <path id="路径_64228" data-name="路径 64228" d="M892.6,372.065s4.348-1.111,6.257-2.422a19.622,19.622,0,0,1,4.3-2.953l-.6,2.876a21.581,21.581,0,0,0,5.707-.833s3.853-1.691,3.279,1.522A8.915,8.915,0,0,1,908.319,375c-1.928,1.135-5.907,2.12-9.131.581l-5.857,3.129Z" transform="translate(635.756 606.497)" fill="#fac897"/>
        <path id="路径_64229" data-name="路径 64229" d="M716.262,211.224c5.381-32.178-4.566-48.834-4.566-48.834-25.8,6.283-30.934,23.344-28.306,35.409,2.174,10,10.386,15.824,10.386,15.824-20.422,43.266-11.062,47.832-11.062,47.832,10.788,12.921,29.208,14.513,29.208,14.513-.676-15.269,0-33.843.435-43.105a49.161,49.161,0,0,1,1.522-10.3c.076-.328.176-.652.25-.985a36.447,36.447,0,0,0,13.865-1.765v-8.631A27.6,27.6,0,0,1,716.262,211.224Z" transform="translate(801.685 766.379)" fill="#fff"/>
        <path id="路径_64230" data-name="路径 64230" d="M764.568,232.85s-10.262,15.724.824,25.59C765.418,258.44,757.284,250.037,764.568,232.85Z" transform="translate(739.338 711.238)" fill="#c5c8dd"/>
        <path id="路径_64231" data-name="路径 64231" d="M727.6,496.58l-2.7,15.871s-8.384-.228-13.365-6.74c0,0,2.929,9.842,15.367,9.312Z" transform="translate(777.458 504.847)" fill="#c5c8dd"/>
        <path id="路径_64232" data-name="路径 64232" d="M729.875,398l-3.155,6.914a52.931,52.931,0,0,0,23.481,1.035C736.282,403.231,729.875,398,729.875,398Z" transform="translate(765.571 581.994)" fill="#c5c8dd"/>
        <path id="路径_64233" data-name="路径 64233" d="M793.287,176.44l-4.407,4.688,6.407,4.29-2.452,3.281s5.983,6.662,5.907,14.567" transform="translate(716.926 755.383)" fill="none" stroke="#c5c8dd" stroke-linecap="round" stroke-linejoin="round" stroke-width="2.31"/>
        <path id="路径_64234" data-name="路径 64234" d="M1140.82,350.434c33.739-3,56.815-9.162,56.815-16.254v41.138c0,7.7-27.281,14.284-65.825,16.959V351.141C1134.9,350.912,1137.893,350.686,1140.82,350.434Z" transform="translate(448.554 631.939)" fill="#c8daff"/>
        <path id="路径_64235" data-name="路径 64235" d="M484.744,349.727c2.755.3,5.581.581,8.51.833V391.7c-34.413-3-58.113-9.21-58.113-16.378V334.18C435.14,340.742,454.986,346.5,484.744,349.727Z" transform="translate(993.756 631.939)" fill="#a7c3ff"/>
        <path id="路径_64236" data-name="路径 64236" d="M436.838,392.57c.2.2-.526.883-.217,1.137.126.1.926-.531,1.1-.4s-.326,1.035-.15,1.161.9-.58,1.076-.454-.276,1.059-.1,1.161.87-.607,1.05-.5-.217,1.059-.05,1.161.87-.633,1.026-.53-.2,1.059-.024,1.161.85-.652,1.026-.557-.152,1.087.024,1.187.826-.681,1-.607-.124,1.087.052,1.161.8-.707.974-.63-.1,1.087.076,1.161.8-.733.976-.652-.076,1.087.126,1.161.774-.757.95-.681-.05,1.087.15,1.161.75-.783.926-.707-.026,1.087.176,1.161.724-.783.924-.707,0,1.087.2,1.161.724-.809.9-.733.024,1.087.217,1.161.7-.833.9-.757.05,1.087.25,1.135.676-.833.87-.783.076,1.087.276,1.137.674-.859.85-.783.1,1.087.3,1.135.652-.859.852-.807.124,1.087.3,1.135.624-.883.826-.833.15,1.087.324,1.135.626-.883.8-.833.15,1.087.35,1.111.6-.909.8-.859.176,1.061.376,1.111.576-.909.776-.87.2,1.061.4,1.111.576-.909.776-.883.217,1.059.4,1.111.55-.935.75-.909.217,1.059.435,1.087.55-.935.726-.909.25,1.059.45,1.087.526-.959.726-.909.274,1.061.476,1.087.5-.959.7-.933.274,1.059.476,1.059.5-.959.7-.933.3,1.035.5,1.059.476-.959.676-.959.326,1.035.526,1.061.474-.985.674-.959.326,1.035.526,1.035.45-.985.652-.985.352,1.035.552,1.035.45-.985.652-.985.35,1.035.55,1.035" transform="translate(992.658 586.244)" fill="none" stroke="#606bff" stroke-linecap="round" stroke-linejoin="round" stroke-width="1.16" opacity="0.4"/>
        <path id="路径_64237" data-name="路径 64237" d="M436.838,432.5c.2.2-.526.883-.217,1.137.126.1.926-.531,1.1-.4s-.326,1.035-.15,1.161.9-.581,1.076-.454-.276,1.059-.1,1.161.87-.607,1.05-.5-.217,1.059-.05,1.161.87-.633,1.026-.53-.2,1.059-.024,1.161.85-.652,1.026-.557-.152,1.087.024,1.187.826-.681,1-.607-.124,1.087.052,1.161.8-.707.974-.63-.1,1.087.076,1.161.8-.733.976-.652-.076,1.087.126,1.161.774-.757.95-.68-.05,1.087.15,1.161.75-.783.926-.707-.026,1.087.176,1.161.724-.783.924-.707,0,1.087.2,1.161.724-.809.9-.733.024,1.087.217,1.161.7-.833.9-.757.05,1.087.25,1.135.676-.833.87-.783.076,1.087.276,1.137.674-.859.85-.783.1,1.087.3,1.135.652-.859.852-.807.124,1.087.3,1.135.624-.883.826-.833.15,1.087.324,1.135.626-.883.8-.833.15,1.087.35,1.111.6-.909.8-.859.176,1.061.376,1.111.576-.909.776-.859.2,1.061.4,1.111.576-.909.776-.883.217,1.059.4,1.111.55-.935.75-.909.217,1.059.435,1.087.55-.935.726-.909.25,1.061.45,1.087.526-.959.726-.909.274,1.061.476,1.087.5-.959.7-.933.274,1.059.476,1.059.5-.959.7-.933.3,1.035.5,1.059.476-.959.676-.959.326,1.035.526,1.061.474-.985.674-.959.326,1.035.526,1.035.45-.985.652-.985.352,1.035.552,1.035.45-.985.652-.985.35,1.035.55,1.035" transform="translate(992.658 554.995)" fill="none" stroke="#606bff" stroke-linecap="round" stroke-linejoin="round" stroke-width="1.16" opacity="0.4"/>
        <path id="路径_64238" data-name="路径 64238" d="M436.838,472.43c.2.2-.526.885-.217,1.137.126.1.926-.531,1.1-.4s-.326,1.035-.15,1.161.9-.581,1.076-.454-.276,1.059-.1,1.161.87-.607,1.05-.5-.217,1.059-.05,1.161.87-.633,1.026-.53-.2,1.059-.024,1.161.85-.652,1.026-.557-.152,1.087.024,1.187.826-.681,1-.607-.124,1.087.052,1.161.8-.707.974-.63-.1,1.087.076,1.161.8-.731.976-.652-.076,1.087.126,1.161.774-.757.95-.68-.05,1.087.15,1.161.75-.783.926-.707-.026,1.087.176,1.161.724-.783.924-.707,0,1.087.2,1.161.724-.809.9-.733.024,1.087.217,1.161.7-.833.9-.757.05,1.087.25,1.135.676-.833.87-.783.076,1.087.276,1.137.674-.859.85-.783.1,1.087.3,1.135.652-.857.852-.807.124,1.087.3,1.135.624-.883.826-.833.15,1.087.324,1.135.626-.883.8-.833.15,1.087.35,1.111.6-.909.8-.859.176,1.061.376,1.111.576-.909.776-.87.2,1.061.4,1.111.576-.909.776-.883.217,1.059.4,1.111.55-.935.75-.909.217,1.059.435,1.087.55-.935.726-.909.25,1.061.45,1.087.526-.959.726-.909.274,1.061.476,1.087.5-.959.7-.933.274,1.059.476,1.059.5-.959.7-.933.3,1.035.5,1.061.476-.961.676-.961.326,1.035.526,1.061.474-.985.674-.959.326,1.035.526,1.035.45-.985.652-.985.352,1.035.552,1.035.45-.985.652-.985.35,1.035.55,1.035" transform="translate(992.658 523.747)" fill="none" stroke="#606bff" stroke-linecap="round" stroke-linejoin="round" stroke-width="1.16" opacity="0.4"/>
        <path id="路径_64239" data-name="路径 64239" d="M1385.43,394.276c-.124.176-.85-.531-1.024-.328-.076.076.524.883.435,1.009-.1.076-.85-.581-.976-.478s.45.933.326,1.035-.826-.631-.952-.531.376.959.276,1.059-.8-.652-.9-.578.324.983.218,1.059-.75-.707-.87-.63.3,1.009.176,1.087-.726-.733-.85-.652.25,1.009.124,1.087-.7-.757-.826-.707.218,1.035.1,1.087-.674-.781-.8-.731.176,1.035.05,1.087-.652-.809-.776-.757.15,1.035.026,1.087-.652-.833-.776-.757.124,1.035,0,1.087-.626-.833-.752-.783.1,1.035-.024,1.087-.6-.859-.726-.807.076,1.033-.05,1.087-.576-.87-.7-.833.05,1.035-.076,1.087-.55-.883-.7-.833.024,1.035-.1,1.087-.55-.883-.676-.859.026,1.035-.126,1.087-.524-.909-.652-.857,0,1.035-.124,1.087-.5-.909-.652-.883-.024,1.033-.15,1.087-.5-.909-.626-.885-.05,1.035-.174,1.087" transform="translate(260.507 585.194)" fill="none" stroke="#606bff" stroke-linecap="round" stroke-linejoin="round" stroke-width="1.16" opacity="0.5"/>
        <path id="路径_64240" data-name="路径 64240" d="M1385.054,480.343c-.15.152-.8-.607-1-.435-.076.076.5.909.374,1.009s-.85-.581-.976-.48.45.935.326,1.035-.826-.63-.952-.528.4.959.3,1.059-.8-.652-.926-.554.374.985.25,1.059-.776-.681-.9-.6.326.983.2,1.059-.774-.707-.87-.631.3,1.009.174,1.087-.75-.731-.85-.652.25,1.011.15,1.087-.726-.759-.826-.683.217,1.009.1,1.087-.7-.783-.826-.707.2,1.035.076,1.087-.676-.807-.8-.731.15,1.035.026,1.087-.626-.833-.776-.783.124,1.035,0,1.087-.6-.833-.75-.807.074,1.035-.05,1.087-.576-.87-.7-.833.05,1.035-.074,1.087-.552-.883-.676-.833.024,1.035-.126,1.087-.524-.909-.652-.859-.024,1.035-.15,1.087-.5-.907-.626-.883-.05,1.035-.2,1.087-.45-.933-.6-.909-.1,1.035-.217,1.061-.435-.959-.576-.935-.124,1.035-.274,1.061" transform="translate(260.86 517.914)" fill="none" stroke="#606bff" stroke-linecap="round" stroke-linejoin="round" stroke-width="1.16" opacity="0.5"/>
        <path id="路径_64241" data-name="路径 64241" d="M1385.326,437.367c-.1.176-.87-.454-1.052-.252-.074.076.576.859.476.985s-.87-.53-1-.435.476.935.376,1.035-.85-.6-.95-.5.4.959.3,1.061-.8-.652-.926-.581.35.983.217,1.059-.776-.707-.9-.631.3,1.009.176,1.087-.726-.731-.852-.652.25,1.011.126,1.087-.7-.759-.826-.707.218,1.033.1,1.087-.676-.783-.8-.733.176,1.035.052,1.087-.652-.807-.776-.757.15,1.035.024,1.087-.626-.833-.75-.783.124,1.035-.026,1.087-.6-.857-.726-.807.1,1.035-.05,1.087-.574-.859-.724-.807.074,1.035-.076,1.087-.576-.885-.7-.833.05,1.035-.1,1.087-.552-.883-.676-.859.024,1.035-.126,1.087-.524-.909-.674-.857,0,1.035-.126,1.087-.526-.909-.652-.883-.026,1.033-.15,1.087-.5-.909-.626-.885-.05,1.035-.176,1.087-.474-.933-.626-.883-.05,1.035-.2,1.087" transform="translate(260.664 551.416)" fill="none" stroke="#606bff" stroke-linecap="round" stroke-linejoin="round" stroke-width="1.16" opacity="0.5"/>
        <path id="路径_64243" data-name="路径 64243" d="M1205.67,459.411a31.089,31.089,0,0,1-5.218,1.565l-1.326-1.565-1.826,3.457-4.229-7.268-3.6,10.8-4.3-6.638-2.2,3.459L1180.885,461l-2.427,4.518-3.829-5.755-2.5,4.77a50.11,50.11,0,0,1-5.805.985" transform="translate(421.548 536.918)" fill="none" stroke="#606bff" stroke-linecap="round" stroke-linejoin="round" stroke-width="2.31" opacity="0.5"/>
        <path id="路径_64246" data-name="路径 64246" d="M819.227,188.021a.435.435,0,0,1-.174-.05.376.376,0,0,1-.15-.5,15.127,15.127,0,0,0,0-14.387c0-.024-.026-.024-.026-.05-5.731-12.593-5.281-17.611-3.879-19.609a3.922,3.922,0,0,1,3.2-1.413,9.247,9.247,0,0,1-.6.809,2.368,2.368,0,0,0-1.976,1.059c-1.026,1.522-1.9,5.955,3.955,18.826a15.967,15.967,0,0,1,0,15.117A.474.474,0,0,1,819.227,188.021Z" transform="translate(697.191 774.515)" fill="#c5c8dd"/>
        <path id="路径_64247" data-name="路径 64247" d="M822.337,186.245a.435.435,0,0,1-.174-.052.374.374,0,0,1-.15-.5,15.13,15.13,0,0,0,0-14.384c0-.026-.026-.026-.026-.05-5.731-12.595-5.281-17.611-3.879-19.609a3.179,3.179,0,0,1,2.779-1.3l-.476.707a2.07,2.07,0,0,0-1.7,1.059c-1.026,1.522-1.9,5.957,3.955,18.828a15.965,15.965,0,0,1,0,15.117A.391.391,0,0,1,822.337,186.245Z" transform="translate(694.757 775.812)" fill="#edf3ff"/>
        <path id="路径_64248" data-name="路径 64248" d="M873.06,198.083a2.978,2.978,0,0,0-1.1-.554c1.326-25.655-7.16-30.462-7.56-30.538l.25.633c.076.05,7.884,4.668,6.557,29.88a3.15,3.15,0,0,0-2.1,1.135c-2.8,3.207-2.126,12.191-2.076,12.569a.381.381,0,0,0,.374.354l1.628.05a.378.378,0,0,0,0-.757l-1.276-.026c-.1-1.665-.376-9.036,1.926-11.66a2.462,2.462,0,0,1,1.752-.909h.054a1.534,1.534,0,0,1,1.1.435c1.026.833,2.779,3.479,3,12.038l-1.026.15a.4.4,0,0,0-.326.435.4.4,0,0,0,.376.326h.05l1.35-.2a.4.4,0,0,0,.326-.38C876.162,202.381,874.462,199.2,873.06,198.083Z" transform="translate(657.825 762.779)" fill="#c5c8dd"/>
        <path id="路径_64249" data-name="路径 64249" d="M873.04,195.521a3,3,0,0,0-1.1-.554c1.476-26.171-8.11-30.873-8.46-31.067a9.036,9.036,0,0,0,.435,1.237c.085.05,8.61,4.618,7.281,29.8a3.139,3.139,0,0,0-2.1,1.137c-2.8,3.2-2.129,12.188-2.079,12.567a.385.385,0,0,0,.376.354l1.626.05a.378.378,0,0,0,0-.757l-1.276-.026c-.1-1.665-.376-9.034,1.926-11.658a2.459,2.459,0,0,1,1.752-.909h.05a1.527,1.527,0,0,1,1.1.435c1.026.833,2.776,3.479,3,12.038l-1.026.152a.391.391,0,0,0-.326.435.4.4,0,0,0,.376.328h.05l1.352-.2a.4.4,0,0,0,.324-.378C876.118,199.8,874.416,196.632,873.04,195.521Z" transform="translate(658.545 765.197)" fill="#edf3ff"/>
        <path id="路径_64250" data-name="路径 64250" d="M822.189,316.217a3.044,3.044,0,1,0-3.029-3.044A3.044,3.044,0,0,0,822.189,316.217Z" transform="translate(693.229 650.76)" fill="#c5c8dd"/>
        <path id="路径_64251" data-name="路径 64251" d="M825.869,315.45a3.055,3.055,0,1,0-3.029-3.055A3.055,3.055,0,0,0,825.869,315.45Z" transform="translate(690.349 651.378)" fill="#edf3ff"/>
        <path id="路径_64252" data-name="路径 64252" d="M830.462,318.8a1.768,1.768,0,1,0-1.752-1.768A1.767,1.767,0,0,0,830.462,318.8Z" transform="translate(685.755 646.745)" fill="#c5c8dd"/>
        <path id="路径_64253" data-name="路径 64253" d="M0,882.53H169.844" transform="translate(1533.859 203.012)" fill="none" stroke="#606bff" stroke-miterlimit="10" stroke-width="1.73" opacity="0.3"/>
      </g>
      <g id="组_53360" data-name="组 53360" transform="translate(-1994.24 434.774) rotate(-1)">
        <path id="路径_64431" data-name="路径 64431" d="M454.17,9.8c-5.424,9.517-2.466,21.846,6.6,27.549A18.372,18.372,0,0,0,481.4,36.7a3.781,3.781,0,0,0,1.264,1.368,3.413,3.413,0,0,0,4.824-1.282,3.8,3.8,0,0,0-1.221-5.062c-.022,0-.022-.023-.043-.023.277-.4.535-.832.793-1.26,5.424-9.517,2.466-21.846-6.6-27.539S459.616.276,454.17,9.8Z" transform="translate(1577.406 183.435)" fill="#a7c3ff"/>
        <path id="路径_64432" data-name="路径 64432" d="M496.952,41.892A17.374,17.374,0,0,0,491.4,18.716a15.672,15.672,0,0,0-22.078,5.822,17.373,17.373,0,0,0,5.543,23.173A15.682,15.682,0,0,0,496.952,41.892Z" transform="translate(1564.869 170.339)" fill="#edf3ff"/>
        <path id="路径_64433" data-name="路径 64433" d="M506,41.314a17.38,17.38,0,0,0-5.768-23.13,15.692,15.692,0,0,0-22.039,6.057" transform="translate(1555.896 170.703)" fill="none" stroke="#626bf6" stroke-linecap="round" stroke-miterlimit="10" stroke-width="3.42"/>
        <path id="路径_64449" data-name="路径 64449" d="M492.89,62.785a39.575,39.575,0,0,0,12.35-1.305S508.392,71.695,515,73.045c0,0-1.954,5.76-13.466,4.275C501.53,77.32,494.5,74.328,492.89,62.785Z" transform="translate(1544.068 133.999)" fill="#c8daff"/>
        <path id="路径_64450" data-name="路径 64450" d="M550.546,115.762s-3.56,4.545-10.506-1.192c0,0-.2,5.354-2.96,5.471C537.086,120.037,547.635,122.061,550.546,115.762Z" transform="translate(1508.512 91.282)" fill="#606bff"/>
      </g>
      <g id="组_53362" data-name="组 53362" transform="translate(198.138 -60.081) rotate(19)">
        <g id="组_53361" data-name="组 53361" transform="translate(317.888 754.615) rotate(-115)">
          <path id="路径_64431-2" data-name="路径 64431" d="M2.715,30.4C-2.709,20.885.249,8.556,9.319,2.853a18.373,18.373,0,0,1,20.625.653,3.781,3.781,0,0,1,1.264-1.368A3.413,3.413,0,0,1,36.032,3.42a3.8,3.8,0,0,1-1.221,5.062c-.022,0-.022.023-.043.023.277.4.535.832.793,1.26,5.424,9.517,2.466,21.846-6.6,27.539S8.16,39.927,2.715,30.4Z" transform="translate(0 0)" fill="#a7c3ff"/>
          <path id="路径_64432-2" data-name="路径 64432" d="M29.914,8.218a17.374,17.374,0,0,1-5.549,23.176A15.673,15.673,0,0,1,2.286,25.572,17.373,17.373,0,0,1,7.829,2.4,15.682,15.682,0,0,1,29.914,8.218Z" transform="translate(3.044 3.189)" fill="#edf3ff"/>
          <path id="路径_64433-2" data-name="路径 64433" d="M27.807,0a17.38,17.38,0,0,1-5.768,23.13A15.692,15.692,0,0,1,0,17.073" transform="translate(5.223 11.622)" fill="none" stroke="#626bf6" stroke-linecap="round" stroke-miterlimit="10" stroke-width="3.42"/>
        </g>
        <g id="组_53358" data-name="组 53358" transform="translate(-1853.559 39.905)">
          <path id="路径_64348" data-name="路径 64348" d="M1253.908,805.632a4.294,4.294,0,1,0-5.952,6.191l3.34,3.205,5.689-6.454Z" transform="translate(927.401 -122.952)" fill="#f5ac00"/>
          <path id="路径_64349" data-name="路径 64349" d="M1280.262,835.539a4.307,4.307,0,0,0-.122-6.071l-3.38-3.258-5.689,6.456,3.117,3A4.313,4.313,0,0,0,1280.262,835.539Z" transform="translate(907.627 -140.577)" fill="#606bff"/>
          <path id="路径_64350" data-name="路径 64350" d="M1262.478,812.284,1261,810.9s-2.027-1.539-4,.808" transform="translate(919.014 -127.784)" fill="none" stroke="#fff" stroke-linecap="round" stroke-miterlimit="10" stroke-width="1.7"/>
        </g>
      </g>
    </g>
  </g>
</svg>
