<svg xmlns="http://www.w3.org/2000/svg" xmlns:xlink="http://www.w3.org/1999/xlink" width="375" height="812" viewBox="0 0 375 812">
  <defs>
    <clipPath id="clip-path">
      <rect id="矩形_5262" data-name="矩形 5262" width="375" height="812" fill="#fff" stroke="#707070" stroke-width="1"/>
    </clipPath>
    <linearGradient id="linear-gradient" x1="0.5" x2="0.5" y2="1" gradientUnits="objectBoundingBox">
      <stop offset="0" stop-color="#d3f2e2"/>
      <stop offset="1" stop-color="#e3f7e8"/>
    </linearGradient>
    <clipPath id="clip-年度报告1-bg">
      <rect width="375" height="812"/>
    </clipPath>
  </defs>
  <g id="年度报告1-bg" clip-path="url(#clip-年度报告1-bg)">
    <rect width="375" height="812" fill="#fdfdfb"/>
    <rect id="矩形_5263" data-name="矩形 5263" width="375" height="812" fill="#fdfdfb"/>
    <g id="蒙版组_3" data-name="蒙版组 3" clip-path="url(#clip-path)">
      <g id="组_53397" data-name="组 53397">
        <ellipse id="椭圆_3" data-name="椭圆 3" cx="247.712" cy="327.484" rx="247.712" ry="327.484" transform="matrix(0.545, 0.839, -0.839, 0.545, 327.237, -106.198)" fill="url(#linear-gradient)"/>
        <path id="路径_64143" data-name="路径 64143" d="M277.139-40.785c117.595,0,252.053,246.913,160.317,256.256S268.318,204.943,168.882,276.58,0,229.967,0,148.148,159.544-40.785,277.139-40.785Z" transform="matrix(0.978, -0.208, 0.208, 0.978, -183.051, -2.445)" fill="#b3dff4" opacity="0.8"/>
        <ellipse id="椭圆_4" data-name="椭圆 4" cx="93.178" cy="154.982" rx="93.178" ry="154.982" transform="matrix(0.545, 0.839, -0.839, 0.545, 437.26, 340.912)" fill="#ecf6e6"/>
      </g>
    </g>
    <text id="仁心仁术_德医双馨" data-name="仁心仁术 德医双馨" transform="translate(29 458)" fill="#0079ff" font-size="40" font-family="YouSheBiaoTiHei" opacity="0.3"><tspan x="0" y="0">仁心仁术 德医双馨</tspan></text>
    <g id="组_53393" data-name="组 53393" transform="translate(0 -34)">
      <path id="路径_370" data-name="路径 370" d="M25.791,915.927S-62.738,923.86,88.3,935.76c0,0,12.616.806-4.751,4.3-16.908,3.386,8.905,4.905,10.617,5,47.06,2.167,223.673,9.52,247.124-.542,0,0,15.341-4.918-14.6-6.611-20.053-1.151-1.235-1.97,0-2.063,22.879-1.838,62.149-7.008,43.4-20.158Z" transform="translate(-0.009 -157.68)" fill="#dcf4e4"/>
      <path id="路径_372" data-name="路径 372" d="M1145.815,959.018c26.932,0,48.776-1.557,48.776-3.5S1172.747,952,1145.815,952s-48.765,1.573-48.765,3.515S1118.881,959.018,1145.815,959.018Z" transform="translate(-871.434 -183.303)" fill="#d8e9cc"/>
      <path id="路径_418" data-name="路径 418" d="M1059.415,965.673c21.595,0,39.1-2.021,39.1-4.505s-17.51-4.518-39.1-4.518-39.115,2.025-39.115,4.518S1037.81,965.673,1059.415,965.673Z" transform="translate(-811.307 -186.945)" fill="#d8e9cc"/>
      <path id="路径_373" data-name="路径 373" d="M458.185,312.68S451,239.952,383.279,227.2a113.247,113.247,0,0,1-62.838-34.832c-2.26-2.473-4.549-5.1-6.809-7.917-23.06-28.426-61.623-39.32-95.846-26.353a89.193,89.193,0,0,0-31.476,20.042,82.746,82.746,0,0,0-23.321,45.5c-2.757,16.8-9.7,45.02-25.71,52.567a24.565,24.565,0,0,0-4.549,2.652c-5.843,4.41-17.714,15.909-13.753,33.809Z" transform="translate(-92.185 447.185)" fill="#e6f6e8"/>
      <path id="路径_363" data-name="路径 363" d="M1174.848,123.256A25,25,0,0,0,1159.74,92.8a23.29,23.29,0,0,0-16.577.226h0a25.3,25.3,0,0,0-4.916,2.58,36.07,36.07,0,0,1-20.04,1.574h-.123a37.43,37.43,0,0,0-4.844-1.224,36.723,36.723,0,0,0-41.444,25.629c-6.242,19.828,4.408,41.069,23.789,47.432,15.191,5,34.276,2.17,44.33-9.283a25.276,25.276,0,0,0,4.772-8.53c3.153-9.407,8.868-10.281,8.868-10.281C1164.389,139.166,1171.893,133.379,1174.848,123.256Z" transform="translate(-853.082 440.613)" fill="#e6f6e8"/>
      <g id="组_51" data-name="组 51" transform="translate(-109.99 441.132)">
        <circle id="椭圆_5" data-name="椭圆 5" cx="11.819" cy="11.819" r="11.819" transform="translate(142.464 105.111)" fill="#f4c689"/>
        <circle id="椭圆_6" data-name="椭圆 6" cx="11.819" cy="11.819" r="11.819" transform="translate(141.99 104.75)" fill="#ffd593"/>
        <path id="路径_1041" data-name="路径 1041" d="M164.463,129.394l-.663.449a10.678,10.678,0,0,1-1.022.558,10.411,10.411,0,0,1-1.132.456A10.316,10.316,0,0,1,149.8,115.321a10.457,10.457,0,0,1,1.127-1.4A10.311,10.311,0,0,1,166,128a11.508,11.508,0,0,1-1.533,1.386Z" transform="translate(-4.55 -4.512)" fill="#ffe5c2"/>
        <path id="路径_1042" data-name="路径 1042" d="M148.633,121.852a10.283,10.283,0,0,1,1.755-5.758,10.454,10.454,0,0,1,1.127-1.4,10.307,10.307,0,0,1,15.179.344,10.307,10.307,0,0,0-15.782-1.1,10.65,10.65,0,0,0-1.127,1.393A10.311,10.311,0,0,0,150.6,127.9a10.27,10.27,0,0,1-1.964-6.052Z" transform="translate(-4.535 -4.527)" fill="#f4c689"/>
        <g id="组_50" data-name="组 50" transform="translate(144.079 106.913)">
          <path id="路径_1043" data-name="路径 1043" d="M189.7,136.7l.012-.012S189.7,136.694,189.7,136.7Zm.823-3.779v0S190.52,132.925,190.523,132.925Zm-.409,3.265v0Z" transform="translate(-179.897 -128.062)" fill="#fff"/>
          <path id="路径_1044" data-name="路径 1044" d="M160.4,122.313a2.727,2.727,0,0,0,.135-.454c.025-.1.037-.2.055-.3-.02-.05.025-.125.012-.187l.025-.017a.071.071,0,0,1,.007-.06l0,0c-.007-.03.007-.06.005-.075l0,0v-.035l.005.007a.354.354,0,0,1,.025-.145h-.025c.045-.09.007-.135.055-.212l0,0c-.032-.12.075-.162.05-.284,0,.015.012,0,.017,0,0-.05.015-.107-.025-.117.007-.037.02-.025.037-.03-.017,0-.02-.037-.012-.067l0,.015.012-.085-.037.01c.02-.042.045,0,.045-.05h-.025c.02-.06.07-.087.1-.142a4.894,4.894,0,0,1,.15-.743l.025,0c.032,0-.032-.075,0-.075l-.007-.03c.007-.007.017-.02.02,0,.007-.025,0-.025,0-.045l.025-.025c.037-.095.017-.184.05-.287a1.331,1.331,0,0,0,.087-.491c0-.2.167-.389.155-.593.005,0,0-.025,0-.025l.042-.174s.2-.847-.2-.259l0,0a.326.326,0,0,0-.035.224c-.045,0-.025.075-.04.1l0,0c.02.065-.05.115-.037.174,0,0-.015-.007-.012-.02,0,.042-.007.1-.032.1a.8.8,0,0,0-.03.307h0c.017.042-.005.05,0,.09,0,0-.005,0-.007,0,.017.045-.02.115-.017.15l-.017,0-.012.08.01-.025c.042.02-.04.05-.025.115-.017.05.07.125.035.174.015.03-.03-.03-.025.012-.025,0-.01-.025-.032-.015,0,.04-.037.057-.032.11l-.017,0c.02.07-.05.112-.025.16,0,.067-.062.03-.042.1l-.03.02c-.01.025.025.025.007.055-.015,0-.02.037-.032.015-.04.067,0,.15-.06.237.025.025,0,.07.017.09-.012,0-.025.095-.04.035,0,0,0-.012.005-.012l-.017-.01c-.045.05,0,.1-.02.155.01-.015.012-.035.025-.02l-.012.05-.012-.012-.025.075h.02c-.017.035-.05.04-.035.085.01.025.032-.025.03.01a.874.874,0,0,0-.075.174c.025,0,.017.015.017.032l-.017,0c.01.07-.045.015-.04.085l-.012-.007.035.025c.025.067-.045.025-.01.1,0-.025.042,0,.025.025l-.015-.012c0,.017,0,.025,0,.037-.007-.012-.025-.01-.025.015l-.017-.025.025.055c-.025.032-.017.1-.045.107,0,0-.03.075-.007.1-.012-.02-.03.025-.05,0,.015.025.017.09-.01.11l0,0c-.04.087,0,.162-.05.239.025,0,0,.042.03.037.007.09-.09.142-.012.192,0,.04-.03.042-.037.06l0-.01-.025.15c0,.025.04.042.02.087-.012-.02-.012,0-.017.02,0-.012-.005-.017-.02,0,0,0,0,.01.007.015h0c0,.03,0,.025.01.012a.019.019,0,0,0,.01,0c-.025.025-.017.087-.045.085-.012.092,0,.162,0,.239-.015,0-.025-.015-.025-.037l-.007.055c-.02,0,0-.032,0-.05-.045.057,0,.137-.042.2l.012.02,0,0c.007,0,.015.02.015.032-.02.007-.04-.01-.045.025-.025.025-.01.085-.01.125.007-.02.015-.01.02,0s-.025.025-.017.04l-.025,0c.025,0,.012.05.02.062-.02.007-.008-.032-.02-.04l-.02.112c.01.042.025,0,.04.02a.212.212,0,0,1-.017.11l.025-.007a.214.214,0,0,1-.04.15c.06.523.2.15.2.15.1-.187.06-.3.092-.531Zm-.3-7.762a.123.123,0,0,1-.125-.125v-.872a.125.125,0,0,1,.249,0v.872A.127.127,0,0,1,160.1,114.552Zm0,18.337a.123.123,0,0,1-.125-.125v-.872a.125.125,0,0,1,.249,0v.872A.125.125,0,0,1,160.1,132.889Zm9.608-9.606h-.872a.125.125,0,1,1,0-.249h.872a.125.125,0,1,1,0,.249Zm-18.34,0h-.872a.125.125,0,1,1,0-.249h.872a.125.125,0,1,1,0,.249Zm9.646.234.01.017S161.023,123.527,161.013,123.517Zm3.888,2.41-3.445-1.787Z" transform="translate(-150.37 -113.43)" fill="#fff"/>
          <path id="路径_1045" data-name="路径 1045" d="M189.716,152.914a4.021,4.021,0,0,0,.454.324c.1.065.214.125.314.182.065,0,.13.08.2.092l.012.025a.1.1,0,0,1,.065.032h0a.543.543,0,0,1,.082.037l0,0,.035.02-.01,0a.46.46,0,0,1,.15.085l.007-.02c.085.08.145.065.217.145h0c.142.02.155.142.3.167-.017,0,0,.012,0,.017.055.025.115.06.137.025.037.025.025.03.02.05.01-.015.05,0,.075.015h-.017l.09.05,0-.04c.04.037-.01.045.037.062l.015-.025c.06.045.075.1.125.16a6.735,6.735,0,0,1,.768.464v.025c-.012.03.09,0,.082.03h.035c0,.01.017.025,0,.025.025.017.025.012.05.015l.017.035c.092.075.2.095.3.167a1.874,1.874,0,0,0,.511.294c.217.08.374.324.6.4.005.007.025.01.025.007l.179.115s.872.553.344-.085h.007a.461.461,0,0,0-.237-.13c.012-.042-.08-.055-.095-.08l0,0c-.075-.01-.11-.1-.184-.112a.021.021,0,0,1,.025,0c-.045-.025-.107-.05-.1-.075a1.138,1.138,0,0,0-.324-.16l.007,0c-.05,0-.05-.025-.1-.04a.011.011,0,0,0,0-.007c-.055,0-.12-.07-.157-.08l.007-.015-.082-.05.025.025c-.035.032-.045-.062-.12-.075-.05-.037-.16.012-.2-.042-.037,0,.042-.015-.007-.025.012-.02.025,0,.025-.025-.045-.015-.05-.06-.11-.075l.007-.017c-.082-.01-.107-.095-.167-.095-.075-.025-.015-.075-.1-.085l-.012-.037c-.025-.025-.037.012-.062-.017.01-.012-.035-.035-.007-.037-.06-.067-.167-.062-.242-.157-.037.012-.075-.032-.1-.025.005-.012-.1-.062-.025-.05.005,0,.015.007.01.01l.015-.012c-.037-.062-.11-.045-.162-.085.012.015.035.025.015.03l-.05-.032.017-.007-.07-.055v.025c-.032-.032-.025-.067-.085-.07-.025,0,.025.042-.02.025a1.436,1.436,0,0,0-.167-.147c0,.025-.025.01-.042,0l.007-.017c-.08-.02,0-.05-.08-.075l.012-.007-.037.025c-.08,0-.012-.05-.1-.05.025.012-.01.042-.037.015l.017-.01c-.02-.007-.03,0-.04-.015.015,0,.02-.02-.007-.032l.03-.007-.067,0c-.025-.04-.1-.057-.1-.09,0,0-.075-.062-.11-.05.025,0-.017-.037.007-.05a.163.163,0,0,1-.117-.055h.005c-.082-.075-.174-.075-.249-.15-.008.02-.045-.017-.05.012-.1-.03-.13-.15-.2-.092-.042-.02-.037-.045-.055-.062l.012,0-.155-.09c-.032-.01-.057.02-.1-.017.025,0,0-.012-.015-.025.012,0,.02,0,0-.025a.028.028,0,0,1-.02,0c-.032-.017-.025-.01-.015,0s0,0,0,.012c-.025-.037-.09-.055-.08-.08-.095-.05-.174-.07-.259-.107,0-.017.025-.017.05-.007l-.057-.03c.01-.017.037.01.057.017-.05-.067-.15-.055-.212-.125l-.025,0,0,0c-.005.007-.025.007-.04,0,0-.025.025-.035-.017-.057-.02-.032-.09-.045-.132-.062.02.015.008.02,0,.02s-.02-.032-.04-.035l.01-.02c-.005.025-.062-.01-.075-.007,0-.025.037,0,.05,0l-.115-.067c-.05-.01-.005.025-.035.03a.289.289,0,0,1-.115-.062l0,.025a.283.283,0,0,1-.15-.1c-.588-.164-.224.132-.224.132a2.191,2.191,0,0,0,.553.3Z" transform="translate(-179.404 -142.71)" fill="#fff"/>
          <circle id="椭圆_7" data-name="椭圆 7" cx="0.832" cy="0.832" r="0.832" transform="translate(8.898 8.823)" fill="#fff"/>
        </g>
      </g>
      <g id="组_61" data-name="组 61" transform="translate(-391.128 454.873)">
        <path id="路径_1122" data-name="路径 1122" d="M678.857,147.541H645.809a3.151,3.151,0,0,0-3.149,3.153v10.251a3.151,3.151,0,0,0,3.149,3.153h1.468l-.641,3.481.641.441,5.495-3.918h26.093a3.151,3.151,0,0,0,3.149-3.153V150.7a3.151,3.151,0,0,0-3.149-3.153Z" transform="translate(-1.024 -30.858)" fill="#eaeaea"/>
        <path id="路径_1123" data-name="路径 1123" d="M650.6,98.3h-4.791a3.151,3.151,0,0,0-3.149,3.153V111.7a3.151,3.151,0,0,0,3.149,3.153h33.052a3.152,3.152,0,0,0,3.149-3.153V101.454a3.152,3.152,0,0,0-3.149-3.153Z" transform="translate(-1.024 -0.699)" fill="#eaeaea"/>
        <path id="路径_1124" data-name="路径 1124" d="M677.191,116.224H644.139a3.153,3.153,0,0,0-3.149,3.155v10.26a3.153,3.153,0,0,0,3.149,3.155h1.468v3.922l5.495-3.922h26.093a3.153,3.153,0,0,0,3.149-3.155V119.38a3.149,3.149,0,0,0-3.149-3.151ZM648.934,97.161h-4.791a3.153,3.153,0,0,0-3.149,3.155v10.26a3.153,3.153,0,0,0,3.149,3.155h33.052a3.153,3.153,0,0,0,3.149-3.155v-10.26a3.153,3.153,0,0,0-3.149-3.155H648.934Z" transform="translate(0)" fill="#fff"/>
        <path id="路径_1125" data-name="路径 1125" d="M660.152,135.163h-5.214a1.2,1.2,0,0,1-1.2-1.2v-5.222a1.2,1.2,0,0,1,1.2-1.2h5.214a1.2,1.2,0,0,1,1.2,1.2v5.222A1.2,1.2,0,0,1,660.152,135.163Zm3.283-7.233h20.027v1.594H663.435Zm0,3.048h20.027v1.594H663.435Zm-3.283-14.726h-5.214a1.2,1.2,0,0,1-1.2-1.2V109.83a1.2,1.2,0,0,1,1.2-1.2h5.214a1.2,1.2,0,0,1,1.2,1.2v5.222a1.206,1.206,0,0,1-1.2,1.2Zm3.283-7.241h20.027V110.6H663.435Zm0,3.048h10.506v1.594H663.435Z" transform="translate(-7.818 -7.033)" fill="#e3eff9"/>
      </g>
      <rect id="矩形_53" data-name="矩形 53" width="348" height="2" transform="translate(24 758.866)" fill="#d5e8cd"/>
      <g id="组_26" data-name="组 26" transform="translate(269.862 643)">
        <path id="路径_843" data-name="路径 843" d="M479.794,326.527h7.657V380.4h-7.657Z" transform="translate(-439 -253.611)" fill="#c8daff" fill-rule="evenodd"/>
        <path id="路径_844" data-name="路径 844" d="M443.32,399.017a1.228,1.228,0,0,1,1.087-1.22l21.714-2.506,3.8-3.29h7.6l3.8,3.29,21.713,2.506a1.229,1.229,0,0,1,1.088,1.22v.967a1.228,1.228,0,0,1-1.228,1.228H444.548a1.228,1.228,0,0,1-1.228-1.228Z" transform="translate(-429.194 -271.213)" fill="#a7c3ff" fill-rule="evenodd"/>
        <rect id="矩形_34" data-name="矩形 34" width="26.409" height="14.126" rx="5.04" transform="translate(31.323 68.787)" fill="#a7c3ff"/>
        <path id="路径_845" data-name="路径 845" d="M479.473,232.454a6.756,6.756,0,0,1,6.665-5.654h38.949a4.3,4.3,0,0,1,4.242,5l-10.523,63.661a6.755,6.755,0,0,1-6.665,5.654H476.088a6.756,6.756,0,0,1-6.665-7.858Z" transform="translate(-436.187 -226.8)" fill="#c8daff" fill-rule="evenodd"/>
        <path id="路径_846" data-name="路径 846" d="M535.052,230.857a4.848,4.848,0,0,1,9.566,1.581l-10.682,64.62a4.847,4.847,0,1,1-9.565-1.581Z" transform="translate(-450.966 -226.8)" fill="#a7c3ff" fill-rule="evenodd"/>
        <path id="路径_847" data-name="路径 847" d="M424,321.512a3.993,3.993,0,0,1,3.992-3.992h74.929a3.992,3.992,0,1,1,0,7.984H427.992A3.992,3.992,0,0,1,424,321.512Z" transform="translate(-424 -251.189)" fill="#c8daff" fill-rule="evenodd"/>
        <path id="路径_848" data-name="路径 848" d="M476.92,321.512a3.992,3.992,0,0,1,3.992-3.992h36.236a3.992,3.992,0,1,1,0,7.984H480.912A3.992,3.992,0,0,1,476.92,321.512Z" transform="translate(-438.227 -251.189)" fill="#a7c3ff" fill-rule="evenodd"/>
      </g>
      <g id="组_27" data-name="组 27" transform="translate(216.929 584)">
        <path id="路径_849" data-name="路径 849" d="M432.614,391.205c-2.453.579-9.725-.073-15.176.308a31.639,31.639,0,0,1-8.169-.758c-1.207-.545.667-2.1,1.9-2.59,2-.806,5.157-2.093,7.371-3.056,3.47-1.511,6.616-2.446,7-4.808s-4.142-13.8-4.142-13.8l9.8,4.038s2.1,8.247,3.14,12.4.533,5.6.533,5.6A2.6,2.6,0,0,1,432.614,391.205Z" transform="translate(-371.533 -204.461)" fill="#ffc4a7" fill-rule="evenodd"/>
        <path id="路径_850" data-name="路径 850" d="M434.194,387.789c.259.647,1.265,4.9,1.265,4.9v2.054s-13.4,3.081-17.889,3.081-12.526-2.472-12.526-2.472.337-2.062,1-2.359,6.629-1.076,7.517-1.47,8.069-4.125,9.476-4.125a3.9,3.9,0,0,1,2.878.989,7.621,7.621,0,0,0,5.276,1.252c2.167-.331,1.21-2.406,1.717-2.638S433.934,387.143,434.194,387.789Z" transform="translate(-370.516 -209.879)" fill="#d8ddf3" fill-rule="evenodd"/>
        <path id="路径_851" data-name="路径 851" d="M435.9,394.8c.453.293.827,5.149.551,5.358s-1.929,1.734-7.324,1.734c-.869,0-4.284-1.354-5.316-1.348-1.937.009-10.955,1.173-12.752.759-3.35-.772-6.61-3.136-6.61-3.646s.014-.724.167-.724,7.444,2.3,9.682,1.967c.469-.069,6.922-1.756,9.026-1.819.98-.029,6.112.995,6.112.995S435.677,394.654,435.9,394.8Z" transform="translate(-370.359 -211.962)" fill="#93b2cc" fill-rule="evenodd"/>
        <path id="路径_852" data-name="路径 852" d="M465.072,282.93S461.179,306.4,446.14,306.4a234.635,234.635,0,0,1-28.608-1.885s2.409,9.872,4.573,18.189,7.025,27,7.025,27H419.5l-21.479-44.4a13.82,13.82,0,0,1,11.3-19.791l31.095-2.586v-3.7h24.664Z" transform="translate(-368.285 -181.324)" fill="#0a2650" fill-rule="evenodd"/>
        <path id="路径_853" data-name="路径 853" d="M385.316,391.743c-2.453.575-9.725-.064-15.176.317a23.616,23.616,0,0,1-7.353-1.031c-1.2-.535.661-2.074,1.878-2.568,1.768-.718,4.455-1.82,6.577-2.735,3.472-1.5,6.237-2.892,7.286-5.232s4.514-13.173,4.514-13.173l8.223,4.494a83.422,83.422,0,0,0-3.689,9.12c-.741,2.817,0,8.168,0,8.168A2.579,2.579,0,0,1,385.316,391.743Z" transform="translate(-359.211 -204.679)" fill="#ffc4a7" fill-rule="evenodd"/>
        <path id="路径_854" data-name="路径 854" d="M387.525,387.181c.282.637,1.435,4.854,1.435,4.854l.072,2.053s-13.282,3.547-17.771,3.7-12.6-2.033-12.6-2.033.265-2.072.915-2.392,6.588-1.307,7.461-1.732,7.92-4.4,9.326-4.453a3.9,3.9,0,0,1,2.911.888,7.615,7.615,0,0,0,5.316,1.066c2.154-.406,1.125-2.446,1.624-2.7S387.244,386.543,387.525,387.181Z" transform="translate(-358.219 -209.726)" fill="#e3e9ff" fill-rule="evenodd"/>
        <path id="路径_855" data-name="路径 855" d="M389.4,394.084c.463.277,1.006,5.116.738,5.335s-1.867,1.8-7.258,1.989-14.7.7-18.078.042-6.715-2.9-6.733-3.413-.012-.723.141-.729,7.52,2.036,9.745,1.628c1.142-.21,14.567-1.061,14.567-1.061S389.175,393.949,389.4,394.084Z" transform="translate(-358.061 -211.773)" fill="#93b2cc" fill-rule="evenodd"/>
        <path id="路径_856" data-name="路径 856" d="M476.8,282.987s2.035,24.591-16.916,24.3c-15.037-.228-47.322-3.868-47.322-3.868s-.527,12.642-3.489,20.1-11.727,26.859-11.727,26.859H387.134l9.74-50.582A15.259,15.259,0,0,1,409.9,287.553l35.321-4.567v-3.7h31.818Z" transform="translate(-365.769 -181.339)" fill="#113b7b" fill-rule="evenodd"/>
        <path id="路径_859" data-name="路径 859" d="M444.991,202.965l-9.477,20.36-2.82-20.36q-.535-3.815-.611-4.259c-.192-1.121,1.125-3.486,1.288-5.811l.022-.362c.162-2.321.953-5.086.841-5.866-.116-.806-1.167-.284-1.823.241-1.465,1.171-1.357,2.759-2.289,4.7-.329.686-3.458-6.261-4.7-6.261s-5.038,5.938-5.038,7.812q0,1.874,5.595,7.543l1.407,32.173a7.255,7.255,0,0,0,13.754,2.9l14.333-27.8Z" transform="translate(-374.582 -156.436)" fill="#ffc4a7" fill-rule="evenodd"/>
        <path id="路径_862" data-name="路径 862" d="M453.969,197.89a6.064,6.064,0,0,1,8.2-2.732l1.352.689a6.064,6.064,0,0,1,2.612,8.229l-8,15.193-11.538-6.338Z" transform="translate(-381.531 -158.861)" fill="#ffe3f4" fill-rule="evenodd"/>
        <path id="路径_863" data-name="路径 863" d="M445.68,216.93a.272.272,0,0,1,.381-.1L458,224.164a.271.271,0,0,1,.094.365l-1.627,2.87a.272.272,0,0,1-.381.1l-11.819-7.444a.271.271,0,0,1-.093-.36Z" transform="translate(-380.881 -164.772)" fill="#ff4f4f" fill-rule="evenodd"/>
        <path id="路径_864" data-name="路径 864" d="M495.4,202.224a6.334,6.334,0,0,0-5.366-7.852l-16.32-2-13.266,1.487a2.536,2.536,0,0,0-2.031,1.446c-1.845,3.958-7.28,16-7.592,21.211-.288,4.806,4.1,10.168,4.1,15.1s-3.234,28.131-3.234,28.131L496.378,262a.576.576,0,0,0,.582-.735l-8.814-30.582Z" transform="translate(-382.651 -158.298)" fill="#ffc4a7" fill-rule="evenodd"/>
        <path id="路径_865" data-name="路径 865" d="M495.4,202.517a6.334,6.334,0,0,0-5.366-7.852l-9.7-1.19s-5.2,8.521-11.494,7.993-2.7-7.957-2.7-7.957l-5.7.639a2.537,2.537,0,0,0-2.031,1.446c-1.845,3.959-7.28,16-7.592,21.212-.288,4.806,4.1,10.168,4.1,15.1s-3.234,28.131-3.234,28.131l44.684,2.263a.576.576,0,0,0,.582-.735l-8.814-30.582Z" transform="translate(-382.651 -158.591)" fill="#ffe3f4" fill-rule="evenodd"/>
        <path id="路径_866" data-name="路径 866" d="M497.063,209.023l4.39,21.557,3.12-11.478Z" transform="translate(-394.912 -162.713)" fill="rgba(8,7,8,0.16)" fill-rule="evenodd"/>
        <path id="路径_867" data-name="路径 867" d="M483.628,193.249c-3.621,5.534-7.107,7.406-10.525,6.887l-.184-.029c-2.932-.51-3.77-2.72-2.252-6.571l.048-.12-2.637.286c-2.145,5.243-.2,8.114,4.658,8.852,4.519.686,10.431-2.446,13.116-8.831l.123-.187Z" transform="translate(-386.998 -158.531)" fill="#ff4f4f" fill-rule="evenodd"/>
        <path id="路径_868" data-name="路径 868" d="M493.837,160.576a6.723,6.723,0,1,1,6.723-6.723A6.723,6.723,0,0,1,493.837,160.576Z" transform="translate(-392.274 -146.304)" fill="#5b1e09" fill-rule="evenodd"/>
        <path id="路径_869" data-name="路径 869" d="M490.9,162.517a6.722,6.722,0,1,1-6.1-11.979c3.308-1.685,6.84-.166,8.526,3.142S494.209,160.832,490.9,162.517Z" transform="translate(-390.687 -147.024)" fill="#ff4f4f" fill-rule="evenodd"/>
        <path id="路径_870" data-name="路径 870" d="M472.353,172.744a14.178,14.178,0,0,1-14.178-14.178c0-7.83,7.494-14.893,12.8-11.52,6.676-3.712,15.56,3.075,15.56,11.52A13.8,13.8,0,0,1,472.353,172.744Z" transform="translate(-384.602 -146.006)" fill="#5b1e09" fill-rule="evenodd"/>
        <path id="路径_871" data-name="路径 871" d="M479.782,184.216a4.6,4.6,0,1,1-9.182-.411l.531-5.967s-5.726.453-7.666-2.316-1.672-17.192-1.672-17.192h17.989v4.815c5.493,0,5.493,6.632,0,6.632Z" transform="translate(-385.558 -149.274)" fill="#ffc4a7" fill-rule="evenodd"/>
        <path id="路径_872" data-name="路径 872" d="M466.191,157.757s-1.529,3.7-2.893,4.814a6.291,6.291,0,0,1-3.742.969l1.615-9.473h18.637v7.644s-5.687,3.365-8.883,1.513A12.89,12.89,0,0,1,466.191,157.757Z" transform="translate(-384.968 -148.143)" fill="#5b1e09" fill-rule="evenodd"/>
        <path id="路径_873" data-name="路径 873" d="M474.387,184.173a21.449,21.449,0,0,0,3.009-.642,24.447,24.447,0,0,0,2.964-1.246s-2.247,2.183-3.427,3.12a24.268,24.268,0,0,1-2.828,1.849Z" transform="translate(-388.825 -155.625)" fill="#f19b93" fill-rule="evenodd"/>
        <path id="路径_874" data-name="路径 874" d="M466.108,169.417v4.755s-1.981-1.03-1.981-1.431A24.183,24.183,0,0,1,466.108,169.417Z" transform="translate(-386.18 -152.213)" fill="#f19b93" fill-rule="evenodd"/>
        <path id="路径_880" data-name="路径 880" d="M489.6,210.678l13.917,22.58s-21.561,8.359-28.507,10.286c-2.392.663-5.493-5.386-9-4.516-1.349.335,3.97,5.209,1.432,5.654-5.664.994-10.028,1.958-10.431,3.165-.5,1.482,5.742,5.06,8.51,5.489,1.525.236,5.98-1.355,11.344-2.785,3.772-1,19.008-4.335,30.185-6.75a9.344,9.344,0,0,0,6.165-13.726l-14.117-25Z" transform="translate(-384.287 -161.666)" fill="#ffc4a7" fill-rule="evenodd"/>
        <path id="路径_881" data-name="路径 881" d="M508.207,199.023a6.064,6.064,0,0,0-8.713-2.121l-1.1.743a6.064,6.064,0,0,0-1.764,8.22l8.192,13.226,10.712-6.651Z" transform="translate(-394.556 -159.224)" fill="#ffe3f4" fill-rule="evenodd"/>
        <path id="路径_882" data-name="路径 882" d="M505.627,223.337a.272.272,0,0,1,.1-.36l12.082-7.1a.273.273,0,0,1,.38.111l1.548,3.034a.272.272,0,0,1-.107.359l-12.121,6.94a.271.271,0,0,1-.375-.11Z" transform="translate(-397.174 -164.521)" fill="#ff4f4f" fill-rule="evenodd"/>
      </g>
      <g id="组_31" data-name="组 31" transform="translate(-170.655 -862.261)">
        <path id="路径_952" data-name="路径 952" d="M220,328.933a.934.934,0,0,1,.936-.933H246.2a.934.934,0,0,1,.936.933v2.8a.934.934,0,0,1-.936.933H220.936a.934.934,0,0,1-.936-.933Z" transform="translate(184.889 1199.461)" fill="#ff326f" fill-rule="evenodd"/>
        <path id="路径_953" data-name="路径 953" d="M220,328.933a.933.933,0,0,1,.933-.933h13.53a.933.933,0,0,1,.933.933v2.8a.933.933,0,0,1-.933.933h-13.53a.933.933,0,0,1-.933-.933Z" transform="translate(184.889 1199.461)" fill="#ff5d8e" fill-rule="evenodd"/>
        <path id="路径_954" data-name="路径 954" d="M222,329.84a.841.841,0,0,1,.842-.84h24.891a.467.467,0,0,1,.468.467v2.8a.467.467,0,0,1-.468.466H222.842a.841.841,0,0,1-.842-.84Z" transform="translate(183.822 1198.927)" fill="#eaefff"/>
        <path id="路径_955" data-name="路径 955" d="M253,329.84a.84.84,0,0,1,.84-.84H264.2a.467.467,0,0,1,.466.467v2.8a.467.467,0,0,1-.466.466H253.84a.84.84,0,0,1-.84-.84Z" transform="translate(167.36 1198.927)" fill="#c1d7ff" fill-rule="evenodd"/>
        <path id="路径_956" data-name="路径 956" d="M216,308.933a.934.934,0,0,1,.936-.933H242.2a.934.934,0,0,1,.936.933v2.8a.934.934,0,0,1-.936.933H216.936a.934.934,0,0,1-.936-.933Z" transform="translate(187.023 1210.13)" fill="#f5ac00"/>
        <path id="路径_957" data-name="路径 957" d="M216,308.933a.933.933,0,0,1,.933-.933h13.53a.933.933,0,0,1,.933.933v2.8a.933.933,0,0,1-.933.933h-13.53a.933.933,0,0,1-.933-.933Z" transform="translate(187.023 1210.13)" fill="#ffbf29"/>
        <path id="路径_958" data-name="路径 958" d="M218,309.84a.841.841,0,0,1,.842-.84h24.891a.467.467,0,0,1,.468.467v2.8a.467.467,0,0,1-.468.466H218.842a.841.841,0,0,1-.842-.84Z" transform="translate(185.956 1209.597)" fill="#eaefff"/>
        <path id="路径_959" data-name="路径 959" d="M249,309.84a.84.84,0,0,1,.84-.84H260.2a.467.467,0,0,1,.467.467v2.8a.467.467,0,0,1-.467.466H249.84a.84.84,0,0,1-.84-.84Z" transform="translate(169.493 1209.597)" fill="#c1d7ff" fill-rule="evenodd"/>
        <path id="路径_960" data-name="路径 960" d="M220,318.933a.934.934,0,0,1,.936-.933H246.2a.934.934,0,0,1,.936.933v2.8a.934.934,0,0,1-.936.933H220.936a.934.934,0,0,1-.936-.933Z" transform="translate(184.889 1204.796)" fill="#1075f0"/>
        <path id="路径_961" data-name="路径 961" d="M220,318.933a.933.933,0,0,1,.933-.933h13.53a.933.933,0,0,1,.933.933v2.8a.933.933,0,0,1-.933.933h-13.53a.933.933,0,0,1-.933-.933Z" transform="translate(184.889 1204.796)" fill="#467fff"/>
        <path id="路径_962" data-name="路径 962" d="M220,319.84a.84.84,0,0,1,.84-.84H234a.933.933,0,0,1,.933.933V321.8a.933.933,0,0,1-.933.933H220.84a.84.84,0,0,1-.84-.84Z" transform="translate(184.889 1204.262)" fill="#eaefff"/>
      </g>
      <g id="组_32" data-name="组 32" transform="translate(27 634)">
        <path id="路径_887" data-name="路径 887" d="M28.98,463.356a1.309,1.309,0,0,1,1.237-1.308l28.661-1.569H67.7l28.777,1.569a1.31,1.31,0,0,1,1.238,1.308v2.033H28.98Z" transform="translate(-6.87 -331.935)" fill="#c8daff" fill-rule="evenodd"/>
        <path id="路径_888" data-name="路径 888" d="M68.88,397.9h6.546v49.094H68.88Z" transform="translate(-15.633 -318.122)" fill="#c8daff" fill-rule="evenodd"/>
        <rect id="矩形_36" data-name="矩形 36" width="9.819" height="11.455" rx="0.84" transform="translate(51.61 121.999)" fill="#a7c3ff"/>
        <path id="路径_889" data-name="路径 889" d="M62.58,393.935a.655.655,0,0,1,.655-.655H78.29a.655.655,0,0,1,.655.655v5.121a.654.654,0,0,1-.411.608l-3.563,1.425a.648.648,0,0,1-.243.047H66.8a.648.648,0,0,1-.243-.047l-3.563-1.425a.654.654,0,0,1-.411-.608Z" transform="translate(-14.243 -316.929)" fill="#a7c3ff" fill-rule="evenodd"/>
        <rect id="矩形_37" data-name="矩形 37" width="6.546" height="6.546" rx="2.1" transform="translate(20.553 133.454)" fill="#a7c3ff"/>
        <rect id="矩形_38" data-name="矩形 38" width="6.546" height="6.546" rx="2.1" transform="translate(85.932 133.454)" fill="#a7c3ff"/>
        <rect id="矩形_39" data-name="矩形 39" width="6.546" height="6.546" rx="2.1" transform="translate(53.247 133.454)" fill="#a7c3ff"/>
        <path id="路径_890" data-name="路径 890" d="M63,386.757a5.237,5.237,0,0,1,5.237-5.237h41.239a5.237,5.237,0,1,1,0,10.473H68.237A5.237,5.237,0,0,1,63,386.757Z" transform="translate(-14.379 -314.31)" fill="#c8daff" fill-rule="evenodd"/>
        <path id="路径_891" data-name="路径 891" d="M30.24,319.36H39.4v26.184c0,13.092,14.728,26.184,14.728,26.184H42.023S30.24,360.579,30.24,345.543Z" transform="translate(-7.077 -300.377)" fill="#a7c3ff" fill-rule="evenodd"/>
        <path id="路径_892" data-name="路径 892" d="M35.28,319.36h9.164v26.184c0,13.092,14.728,26.184,14.728,26.184h-10.8S35.28,360.884,35.28,345.543Z" transform="translate(-8.195 -300.377)" fill="#c8daff" fill-rule="evenodd"/>
        <path id="路径_893" data-name="路径 893" d="M.84,301.546A6.546,6.546,0,0,1,7.386,295H53.557a6.546,6.546,0,0,1,6.546,6.546v25.439a6.546,6.546,0,0,1-6.546,6.546H7.386A6.546,6.546,0,0,1,.84,326.984Z" transform="translate(-0.557 -295)" fill="#c8daff" fill-rule="evenodd"/>
        <path id="路径_894" data-name="路径 894" d="M.477,299.244a4.244,4.244,0,1,1,8.488,0v30.043a4.244,4.244,0,0,1-8.488,0Z" transform="translate(-0.477 -295)" fill="#a7c3ff" fill-rule="evenodd"/>
        <path id="路径_895" data-name="路径 895" d="M21.84,386.757a5.237,5.237,0,0,1,5.237-5.237h39.93a5.237,5.237,0,1,1,0,10.473H27.077A5.237,5.237,0,0,1,21.84,386.757Z" transform="translate(-5.226 -314.31)" fill="#a7c3ff" fill-rule="evenodd"/>
      </g>
      <g id="组_62" data-name="组 62" transform="translate(5.5 -12.134)">
        <rect id="矩形_41" data-name="矩形 41" width="12" height="13" transform="translate(176 669)" fill="#8dbffc"/>
        <rect id="矩形_40" data-name="矩形 40" width="60" height="40" rx="4" transform="translate(152 634)" fill="#cce2fb"/>
        <rect id="矩形_42" data-name="矩形 42" width="54" height="33" rx="2" transform="translate(155 637)" fill="#fff"/>
        <g id="组_46" data-name="组 46" transform="translate(-0.688 -4.693)">
          <path id="路径_561" data-name="路径 561" d="M755.871,457.92h-12.2v11.8h12.2Z" transform="translate(-582.595 192.392)" fill="#007bff"/>
          <path id="路径_563" data-name="路径 563" d="M755.871,519.47h-12.2v2.43h12.2Z" transform="translate(-582.595 144.173)" fill="#ff5925"/>
          <path id="路径_564" data-name="路径 564" d="M823.65,461.15h11.512" transform="translate(-645.251 189.861)" fill="none" stroke="#016efc" stroke-miterlimit="10" stroke-width="1.71"/>
          <path id="路径_565" data-name="路径 565" d="M823.65,470.73h25.9" transform="translate(-645.251 182.356)" fill="none" stroke="#016efc" stroke-miterlimit="10" stroke-width="1.71"/>
          <path id="路径_566" data-name="路径 566" d="M823.65,480.43h25.9" transform="translate(-645.251 174.757)" fill="none" stroke="#016efc" stroke-miterlimit="10" stroke-width="1.71"/>
          <path id="路径_567" data-name="路径 567" d="M823.65,490.13h25.9" transform="translate(-645.251 167.158)" fill="none" stroke="#016efc" stroke-miterlimit="10" stroke-width="1.71"/>
          <path id="路径_568" data-name="路径 568" d="M823.65,499.77h25.9" transform="translate(-645.251 159.606)" fill="none" stroke="#016efc" stroke-miterlimit="10" stroke-width="1.71"/>
          <path id="路径_569" data-name="路径 569" d="M823.65,509.46h25.9" transform="translate(-645.251 152.015)" fill="none" stroke="#016efc" stroke-miterlimit="10" stroke-width="1.71"/>
          <path id="路径_570" data-name="路径 570" d="M823.65,519.16h25.9" transform="translate(-645.251 144.416)" fill="none" stroke="#016efc" stroke-miterlimit="10" stroke-width="1.71"/>
          <path id="路径_571" data-name="路径 571" d="M823.65,528.86h21.144" transform="translate(-645.251 136.817)" fill="none" stroke="#016efc" stroke-miterlimit="10" stroke-width="1.71"/>
        </g>
      </g>
      <g id="组_48" data-name="组 48" transform="translate(-4 7.866)">
        <rect id="矩形_45" data-name="矩形 45" width="20" height="90" transform="translate(195 672)" fill="#edb78e"/>
        <path id="路径_1121" data-name="路径 1121" d="M0,0,20,7.5V20H0Z" transform="translate(195 742)" fill="#e39157"/>
        <rect id="矩形_43" data-name="矩形 43" width="140" height="6" transform="translate(135 666)" fill="#edb78e"/>
        <rect id="矩形_44" data-name="矩形 44" width="140" height="4" transform="translate(135 662)" fill="#ffd593"/>
        <rect id="矩形_46" data-name="矩形 46" width="40" height="4" transform="translate(185 762)" fill="#e39157"/>
      </g>
      <g id="组_43" data-name="组 43" transform="translate(12.763 708.866)">
        <path id="路径_1028" data-name="路径 1028" d="M113.161,199.325h23.458l-2.666,19.444a1.177,1.177,0,0,1-1.163,1.02h-15.8a1.175,1.175,0,0,1-1.162-1.02Z" transform="translate(-109.801 -169.789)" fill="#f5ac00"/>
        <path id="路径_1029" data-name="路径 1029" d="M118.962,204.83s-1.891-5.25-3.524-8.733-5.489-10.5-5.489-10.5,6.419,5.681,8.437,8.906,4.013,9.6,4.013,9.6Z" transform="translate(-109.95 -170.427)" fill="#57d46e"/>
        <path id="路径_1030" data-name="路径 1030" d="M120.508,200.813s-1.691-5.824-3.416-10.34-5.642-12.8-5.642-12.8,7.064,7.476,9.4,11.807a83.293,83.293,0,0,1,4.566,11.329Z" transform="translate(-109.88 -170.795)" fill="#40b955" fill-rule="evenodd"/>
        <path id="路径_1031" data-name="路径 1031" d="M128.433,200.4a67.622,67.622,0,0,1,3.178-6.9c1.382-2.369,4.868-6.9,4.868-6.9s-2.27,5.44-3.125,8.193a33.458,33.458,0,0,0-1.16,5.6Z" transform="translate(-109.261 -170.38)" fill="#57d46e"/>
        <path id="路径_1032" data-name="路径 1032" d="M125.395,200.792s2.544-8.671,3.817-13.21a58.9,58.9,0,0,1,3.818-9.449s-1.158,5.971-1.743,10.144-1.436,12.515-1.436,12.515Z" transform="translate(-109.366 -170.774)" fill="#40b955" fill-rule="evenodd"/>
        <path id="路径_1033" data-name="路径 1033" d="M124.071,201.118s-.862-9.93-.95-15.009.429-15.009.429-15.009,2.343,8.838,3.086,14.047,1.2,15.97,1.2,15.97Z" transform="translate(-109.438 -171.101)" fill="#57d46e"/>
        <path id="路径_1034" data-name="路径 1034" d="M112.032,200.506a1.178,1.178,0,0,1,1.174-1.181h23.474a1.177,1.177,0,0,1,1.174,1.181v3.671a1.177,1.177,0,0,1-1.174,1.18H113.206a1.177,1.177,0,0,1-1.174-1.18Z" transform="translate(-109.853 -169.789)" fill="#ffbf29"/>
      </g>
      <path id="路径_371" data-name="路径 371" d="M245.49,951.053c36.237.635,65.679-1.949,65.733-5.746s-29.258-7.4-65.508-8.034-65.679,1.949-65.746,5.746S209.243,950.432,245.49,951.053Z" transform="translate(-127.99 -172.194)" fill="#d8e9cc"/>
      <g id="组_105" data-name="组 105" transform="translate(-7 -2.474)">
        <path id="路径_1014" data-name="路径 1014" d="M701.421,893.7a9.485,9.485,0,0,0,8.087,8.492s7.649.96,7.021,5.913h-25.8a6.626,6.626,0,0,1,.7-5.62,11.3,11.3,0,0,0,2.063-6,7.664,7.664,0,0,0-.3-2.781Z" transform="translate(-540.113 -131.63)" fill="#04794a"/>
        <path id="路径_1013" data-name="路径 1013" d="M619.873,884.221a9.1,9.1,0,0,0,5.529,9.636s6.834,2.615,5.194,7l-23.766-5.822a6.384,6.384,0,0,1,1.842-5.028,10.536,10.536,0,0,0,3.186-5.052,6.346,6.346,0,0,0,.3-2.615Z" transform="translate(-481.763 -124.384)" fill="#04794a"/>
        <path id="路径_984" data-name="路径 984" d="M522.218,404.18c-3.261,1.492-6.541,2.836-8.881.849a5.065,5.065,0,0,1-1.842,3.684s-1.549,3.684,6.725,7.248a7.039,7.039,0,0,0,6.1-7.368S522.088,407.864,522.218,404.18Z" transform="translate(-415.151 209.381)" fill="#fac897"/>
        <path id="路径_985" data-name="路径 985" d="M553.371,570.555c-7.369-5.526-3.482-15.4-3.482-15.4-4.107-.408-14.039-.552-19.2-.6-1.676,23.253,13.945,27.133,22.718,40.233,12.031,18.623,9.8,38.793,4.071,61.266l13.287,2.34C592.175,590.763,553.371,570.555,553.371,570.555Z" transform="translate(-428.544 104.42)" fill="#009559"/>
        <path id="路径_986" data-name="路径 986" d="M515.737,594.773c-8.824-13.1-21.3-24.557-23.159-40.233-11.33,0-22.649.6-22.649.6-5.363,22.38,16.582,35.634,31.119,41.758a23.716,23.716,0,0,1,14.193,19.822c2.026,23.207-2.564,38.977-2.564,38.977l3.557.625C523.568,636.585,527.75,613.4,515.737,594.773Z" transform="translate(-385.642 104.427)" fill="#04794a"/>
        <path id="路径_987" data-name="路径 987" d="M508.817,600.96a24.527,24.527,0,0,1-9.362-6.061c-5.4-5.671-5.161-10.829-5.161-10.829H481c-2.854,8.528-7.664,18.723-3.28,26.671,7.592,13.707,26.55,10.741,38.693,19.472,16.95,11.777,21.205,29.051,25.387,49.072H552.7C555.709,622.1,519.227,604.792,508.817,600.96Z" transform="translate(-390.42 83.815)" fill="#12966c"/>
        <path id="路径_988" data-name="路径 988" d="M504.259,628.414c-12.161-8.712-29.775-5.288-37.367-19.025-4.385-7.9-1.969-17.213.885-25.789H462.71c-17.557,30.978,9.766,39.077,23.953,41.191a36.856,36.856,0,0,1,17.756,7.746,35,35,0,0,1,5.714,5.738c13.191,16.579,17.651,40.526,17.651,40.526h1.972C526.766,659.835,521.227,640.237,504.259,628.414Z" transform="translate(-377.202 84.143)" fill="#04794a"/>
        <path id="路径_973" data-name="路径 973" d="M474.918,415.4s5.895,11.883,10.428,0l8.108,3.02,15.456,56.22h-51.7l4.81-54.6Z" transform="translate(-377.34 201.55)" fill="#fff"/>
        <g id="组_99" data-name="组 99" transform="translate(81.229 576.474)">
          <path id="路径_1596" data-name="路径 1596" d="M78.217,90.392c6.932-13.79,24.2-5.52,27.187,3.756,1.594,4.95,2.464,17.121-.87,22.665-1.671,2.778-2.922,11.229-2.922,11.229l-15.81-2.17-20.573,5.664s.351-12.065,2.587-14.723c2.336-2.775,3.455-4.266,3.455-11.182S71.96,90.392,78.217,90.392Z" transform="translate(-65.229 -83.072)" fill="#0a2650" fill-rule="evenodd"/>
          <path id="路径_1597" data-name="路径 1597" d="M81.995,125.872a5.456,5.456,0,1,0,10.891-.488l-.631-5.052s6.793.538,9.093-2.747,1.983-20.392,1.983-20.392H81.995V102.9c-6.515,0-6.515,7.866,0,7.866Z" transform="translate(-66.749 -84.885)" fill="#ffc4a7" fill-rule="evenodd"/>
          <path id="路径_1598" data-name="路径 1598" d="M93.458,123.388a25.577,25.577,0,0,1-3.569-.761,29.128,29.128,0,0,1-3.516-1.477s2.665,2.588,4.065,3.7a28.9,28.9,0,0,0,3.355,2.192Z" transform="translate(-67.938 -87.96)" fill="#f19b93" fill-rule="evenodd"/>
          <path id="路径_1600" data-name="路径 1600" d="M97.842,97.129s1.813,4.39,3.431,5.709a10.774,10.774,0,0,0,4.438,1.731l.206-10.034L81.69,92.752v9.067s6.745,3.991,10.536,1.795A15.282,15.282,0,0,0,97.842,97.129Z" transform="translate(-67.337 -84.315)" fill="#0a2650" fill-rule="evenodd"/>
        </g>
        <g id="组_100" data-name="组 100" transform="translate(104.044 598.735)">
          <path id="路径_982" data-name="路径 982" d="M262.013,273.047l3.243.091a1.456,1.456,0,0,0,.187-2.905c-.032,0-.064,0-.1,0h-3.261a1.455,1.455,0,0,0-1.456,1.416A1.474,1.474,0,0,0,262.013,273.047Z" transform="translate(-260.63 -270.23)" fill="none" stroke="#fff" stroke-linecap="round" stroke-linejoin="round" stroke-width="3"/>
          <path id="路径_983" data-name="路径 983" d="M293.306,273.913l3.243.09a1.456,1.456,0,0,0,.091-2.893l-3.24-.091a1.456,1.456,0,0,0,0,2.893Z" transform="translate(-282.601 -271.02)" fill="none" stroke="#fff" stroke-linecap="round" stroke-linejoin="round" stroke-width="3"/>
        </g>
        <g id="组_104" data-name="组 104" transform="translate(105.915 616.358)">
          <g id="组_37" data-name="组 37" transform="translate(56.191 49.37)">
            <path id="路径_469" data-name="路径 469" d="M744.539,581.972a8.714,8.714,0,0,0-5.327-3.684,22.344,22.344,0,0,0-6.743,0l-.329,5.306h11.5a1.069,1.069,0,0,0,1.057-1.081h0A1.1,1.1,0,0,0,744.539,581.972Z" transform="translate(-729.854 -578.032)" fill="#fac897"/>
            <path id="路径_470" data-name="路径 470" d="M724.57,579.661v4.146h3.261l.664-5.418A7.185,7.185,0,0,0,724.57,579.661Z" transform="translate(-724.57 -578.282)" fill="#f29d59"/>
          </g>
          <g id="组_102" data-name="组 102" transform="translate(0 0)">
            <path id="路径_989" data-name="路径 989" d="M561.4,497.519c-1.842-1.271-10.116-2.452-8.622,4,2.524,9.6,7.368,22.253,16.232,30.228a118.032,118.032,0,0,1,19.381,23.488s-6.559-22.567-16.434-38.684a27.169,27.169,0,0,1,2.763-4.367C566.832,500.723,564.748,500.319,561.4,497.519Z" transform="translate(-549.836 -471.431)" fill="#04794a"/>
            <path id="路径_990" data-name="路径 990" d="M601,469.11v-6.025a76.115,76.115,0,0,1-30.05-17.817,13.82,13.82,0,0,1-3.687-5.526c-2.331-7.109-8.981-24.808-14.731-25.53a59.064,59.064,0,0,0-7.368-.773,36.52,36.52,0,0,0-1.238,16.842,91.362,91.362,0,0,0,2.561,13.206,26.029,26.029,0,0,0,4.832,4.5,103.437,103.437,0,0,0,9.709,7.477,20.744,20.744,0,0,1,2.745,1.842,14.391,14.391,0,0,1,1.842,1.289h0C569.111,461.337,581.088,469.222,601,469.11Z" transform="translate(-543.457 -413.44)" fill="#12a072"/>
          </g>
        </g>
        <g id="组_103" data-name="组 103" transform="translate(50.907 616.949)">
          <path id="路径_1000" data-name="路径 1000" d="M657.4,569.667v4.143h3.1l.939-5.36A14.385,14.385,0,0,0,657.4,569.667Z" transform="translate(-567.983 -522.231)" fill="#f29d59"/>
          <path id="路径_1001" data-name="路径 1001" d="M678.275,571.861a8.594,8.594,0,0,0-5.306-3.684,16.769,16.769,0,0,0-5.988,0l-.7,5.267h11.056a1.012,1.012,0,0,0,.939-1.582Z" transform="translate(-574.182 -521.853)" fill="#fac897"/>
          <g id="组_101" data-name="组 101" transform="translate(0 0)">
            <path id="路径_969" data-name="路径 969" d="M407.58,414.971c.239,3.947,3.012,10.587,3.32,16.123v8.012a50.688,50.688,0,0,0,41.673,21.866v5.985s-24.189,6.779-45.617-7.48c0,0-6.465,58.373-2.1,73.985,0,0-27.1-.22-43.558-11.345,0,0,5.4-32.717,21.042-52.149,0,0,10.63-12.895,7.516-26.306,0,0-4.808-22.649,6.671-27.372A52.476,52.476,0,0,1,407.58,414.971Z" transform="translate(-361.3 -414.971)" fill="#12a072"/>
            <path id="路径_975" data-name="路径 975" d="M474.516,506.163S464.4,502.479,461.358,485.9C461.358,485.87,461.026,503.11,474.516,506.163Z" transform="translate(-431.142 -464.61)" fill="#04794a"/>
          </g>
        </g>
      </g>
    </g>
  </g>
</svg>
