<svg xmlns="http://www.w3.org/2000/svg" xmlns:xlink="http://www.w3.org/1999/xlink" width="375" height="812" viewBox="0 0 375 812">
  <defs>
    <clipPath id="clip-path">
      <rect id="矩形_5266" data-name="矩形 5266" width="375" height="812" fill="#fff" stroke="#707070" stroke-width="1"/>
    </clipPath>
    <clipPath id="clip-年度报告3-bg">
      <rect width="375" height="812"/>
    </clipPath>
  </defs>
  <g id="年度报告3-bg" clip-path="url(#clip-年度报告3-bg)">
    <rect id="矩形_5267" data-name="矩形 5267" width="375" height="812" fill="#fefdfb"/>
    <g id="蒙版组_5" data-name="蒙版组 5" clip-path="url(#clip-path)">
      <g id="组_53399" data-name="组 53399">
        <ellipse id="椭圆_3" data-name="椭圆 3" cx="180.212" cy="152.638" rx="180.212" ry="152.638" transform="matrix(0.545, 0.839, -0.839, 0.545, 327.237, -100.198)" fill="#bfe9a0" opacity="0.6"/>
        <ellipse id="椭圆_4" data-name="椭圆 4" cx="167.678" cy="248.982" rx="167.678" ry="248.982" transform="matrix(-0.208, 0.978, -0.978, -0.208, 440.903, 214.565)" fill="#f0f8da" opacity="0.6"/>
        <path id="路径_64143" data-name="路径 64143" d="M277.139-40.785c117.595,0,252.053,246.913,160.317,256.256S268.318,204.943,168.882,276.58,0,229.967,0,148.148,159.544-40.785,277.139-40.785Z" transform="matrix(0.978, -0.208, 0.208, 0.978, -183.051, -10.176)" fill="#96d1ca" opacity="0.5"/>
      </g>
    </g>
    <g id="组_53394" data-name="组 53394" transform="translate(0 -15)">
      <path id="路径_370" data-name="路径 370" d="M25.791,915.927S-62.738,923.86,88.3,935.76c0,0,12.616.806-4.751,4.3-16.908,3.386,8.905,4.905,10.617,5,47.06,2.167,223.673,9.52,247.124-.542,0,0,15.341-4.918-14.6-6.611-20.053-1.151-1.235-1.97,0-2.063,22.879-1.838,62.149-7.008,43.4-20.158Z" transform="translate(-0.009 -161.68)" fill="#edf4de"/>
      <path id="路径_373" data-name="路径 373" d="M458.185,312.68S451,239.952,383.279,227.2a113.247,113.247,0,0,1-62.838-34.832c-2.26-2.473-4.549-5.1-6.809-7.917-23.06-28.426-61.623-39.32-95.846-26.353a89.193,89.193,0,0,0-31.476,20.042,82.746,82.746,0,0,0-23.321,45.5c-2.757,16.8-9.7,45.02-25.71,52.567a24.565,24.565,0,0,0-4.549,2.652c-5.843,4.41-17.714,15.909-13.753,33.809Z" transform="translate(-94.185 443.185)" fill="#f6fae7"/>
      <path id="路径_363" data-name="路径 363" d="M1174.848,123.256A25,25,0,0,0,1159.74,92.8a23.29,23.29,0,0,0-16.577.226h0a25.3,25.3,0,0,0-4.916,2.58,36.07,36.07,0,0,1-20.04,1.574h-.123a37.43,37.43,0,0,0-4.844-1.224,36.723,36.723,0,0,0-41.444,25.629c-6.242,19.828,4.408,41.069,23.789,47.432,15.191,5,34.276,2.17,44.33-9.283a25.276,25.276,0,0,0,4.772-8.53c3.153-9.407,8.868-10.281,8.868-10.281C1164.389,139.166,1171.893,133.379,1174.848,123.256Z" transform="translate(-855.082 440.613)" fill="#f6fae7"/>
      <g id="组_51" data-name="组 51" transform="translate(98.898 427.25)">
        <circle id="椭圆_5" data-name="椭圆 5" cx="11.819" cy="11.819" r="11.819" transform="translate(142.464 105.111)" fill="#f4c689"/>
        <circle id="椭圆_6" data-name="椭圆 6" cx="11.819" cy="11.819" r="11.819" transform="translate(141.99 104.75)" fill="#ffd593"/>
        <path id="路径_1041" data-name="路径 1041" d="M164.463,129.394l-.663.449a10.678,10.678,0,0,1-1.022.558,10.411,10.411,0,0,1-1.132.456A10.316,10.316,0,0,1,149.8,115.321a10.457,10.457,0,0,1,1.127-1.4A10.311,10.311,0,0,1,166,128a11.508,11.508,0,0,1-1.533,1.386Z" transform="translate(-4.55 -4.512)" fill="#ffe5c2"/>
        <path id="路径_1042" data-name="路径 1042" d="M148.633,121.852a10.283,10.283,0,0,1,1.755-5.758,10.454,10.454,0,0,1,1.127-1.4,10.307,10.307,0,0,1,15.179.344,10.307,10.307,0,0,0-15.782-1.1,10.65,10.65,0,0,0-1.127,1.393A10.311,10.311,0,0,0,150.6,127.9a10.27,10.27,0,0,1-1.964-6.052Z" transform="translate(-4.535 -4.527)" fill="#f4c689"/>
        <g id="组_50" data-name="组 50" transform="translate(144.079 106.913)">
          <path id="路径_1043" data-name="路径 1043" d="M189.7,136.7l.012-.012S189.7,136.694,189.7,136.7Zm.823-3.779v0S190.52,132.925,190.523,132.925Zm-.409,3.265v0Z" transform="translate(-179.897 -128.062)" fill="#fff"/>
          <path id="路径_1044" data-name="路径 1044" d="M160.4,122.313a2.727,2.727,0,0,0,.135-.454c.025-.1.037-.2.055-.3-.02-.05.025-.125.012-.187l.025-.017a.071.071,0,0,1,.007-.06l0,0c-.007-.03.007-.06.005-.075l0,0v-.035l.005.007a.354.354,0,0,1,.025-.145h-.025c.045-.09.007-.135.055-.212l0,0c-.032-.12.075-.162.05-.284,0,.015.012,0,.017,0,0-.05.015-.107-.025-.117.007-.037.02-.025.037-.03-.017,0-.02-.037-.012-.067l0,.015.012-.085-.037.01c.02-.042.045,0,.045-.05h-.025c.02-.06.07-.087.1-.142a4.894,4.894,0,0,1,.15-.743l.025,0c.032,0-.032-.075,0-.075l-.007-.03c.007-.007.017-.02.02,0,.007-.025,0-.025,0-.045l.025-.025c.037-.095.017-.184.05-.287a1.331,1.331,0,0,0,.087-.491c0-.2.167-.389.155-.593.005,0,0-.025,0-.025l.042-.174s.2-.847-.2-.259l0,0a.326.326,0,0,0-.035.224c-.045,0-.025.075-.04.1l0,0c.02.065-.05.115-.037.174,0,0-.015-.007-.012-.02,0,.042-.007.1-.032.1a.8.8,0,0,0-.03.307h0c.017.042-.005.05,0,.09,0,0-.005,0-.007,0,.017.045-.02.115-.017.15l-.017,0-.012.08.01-.025c.042.02-.04.05-.025.115-.017.05.07.125.035.174.015.03-.03-.03-.025.012-.025,0-.01-.025-.032-.015,0,.04-.037.057-.032.11l-.017,0c.02.07-.05.112-.025.16,0,.067-.062.03-.042.1l-.03.02c-.01.025.025.025.007.055-.015,0-.02.037-.032.015-.04.067,0,.15-.06.237.025.025,0,.07.017.09-.012,0-.025.095-.04.035,0,0,0-.012.005-.012l-.017-.01c-.045.05,0,.1-.02.155.01-.015.012-.035.025-.02l-.012.05-.012-.012-.025.075h.02c-.017.035-.05.04-.035.085.01.025.032-.025.03.01a.874.874,0,0,0-.075.174c.025,0,.017.015.017.032l-.017,0c.01.07-.045.015-.04.085l-.012-.007.035.025c.025.067-.045.025-.01.1,0-.025.042,0,.025.025l-.015-.012c0,.017,0,.025,0,.037-.007-.012-.025-.01-.025.015l-.017-.025.025.055c-.025.032-.017.1-.045.107,0,0-.03.075-.007.1-.012-.02-.03.025-.05,0,.015.025.017.09-.01.11l0,0c-.04.087,0,.162-.05.239.025,0,0,.042.03.037.007.09-.09.142-.012.192,0,.04-.03.042-.037.06l0-.01-.025.15c0,.025.04.042.02.087-.012-.02-.012,0-.017.02,0-.012-.005-.017-.02,0,0,0,0,.01.007.015h0c0,.03,0,.025.01.012a.019.019,0,0,0,.01,0c-.025.025-.017.087-.045.085-.012.092,0,.162,0,.239-.015,0-.025-.015-.025-.037l-.007.055c-.02,0,0-.032,0-.05-.045.057,0,.137-.042.2l.012.02,0,0c.007,0,.015.02.015.032-.02.007-.04-.01-.045.025-.025.025-.01.085-.01.125.007-.02.015-.01.02,0s-.025.025-.017.04l-.025,0c.025,0,.012.05.02.062-.02.007-.008-.032-.02-.04l-.02.112c.01.042.025,0,.04.02a.212.212,0,0,1-.017.11l.025-.007a.214.214,0,0,1-.04.15c.06.523.2.15.2.15.1-.187.06-.3.092-.531Zm-.3-7.762a.123.123,0,0,1-.125-.125v-.872a.125.125,0,0,1,.249,0v.872A.127.127,0,0,1,160.1,114.552Zm0,18.337a.123.123,0,0,1-.125-.125v-.872a.125.125,0,0,1,.249,0v.872A.125.125,0,0,1,160.1,132.889Zm9.608-9.606h-.872a.125.125,0,1,1,0-.249h.872a.125.125,0,1,1,0,.249Zm-18.34,0h-.872a.125.125,0,1,1,0-.249h.872a.125.125,0,1,1,0,.249Zm9.646.234.01.017S161.023,123.527,161.013,123.517Zm3.888,2.41-3.445-1.787Z" transform="translate(-150.37 -113.43)" fill="#fff"/>
          <path id="路径_1045" data-name="路径 1045" d="M189.716,152.914a4.021,4.021,0,0,0,.454.324c.1.065.214.125.314.182.065,0,.13.08.2.092l.012.025a.1.1,0,0,1,.065.032h0a.543.543,0,0,1,.082.037l0,0,.035.02-.01,0a.46.46,0,0,1,.15.085l.007-.02c.085.08.145.065.217.145h0c.142.02.155.142.3.167-.017,0,0,.012,0,.017.055.025.115.06.137.025.037.025.025.03.02.05.01-.015.05,0,.075.015h-.017l.09.05,0-.04c.04.037-.01.045.037.062l.015-.025c.06.045.075.1.125.16a6.735,6.735,0,0,1,.768.464v.025c-.012.03.09,0,.082.03h.035c0,.01.017.025,0,.025.025.017.025.012.05.015l.017.035c.092.075.2.095.3.167a1.874,1.874,0,0,0,.511.294c.217.08.374.324.6.4.005.007.025.01.025.007l.179.115s.872.553.344-.085h.007a.461.461,0,0,0-.237-.13c.012-.042-.08-.055-.095-.08l0,0c-.075-.01-.11-.1-.184-.112a.021.021,0,0,1,.025,0c-.045-.025-.107-.05-.1-.075a1.138,1.138,0,0,0-.324-.16l.007,0c-.05,0-.05-.025-.1-.04a.011.011,0,0,0,0-.007c-.055,0-.12-.07-.157-.08l.007-.015-.082-.05.025.025c-.035.032-.045-.062-.12-.075-.05-.037-.16.012-.2-.042-.037,0,.042-.015-.007-.025.012-.02.025,0,.025-.025-.045-.015-.05-.06-.11-.075l.007-.017c-.082-.01-.107-.095-.167-.095-.075-.025-.015-.075-.1-.085l-.012-.037c-.025-.025-.037.012-.062-.017.01-.012-.035-.035-.007-.037-.06-.067-.167-.062-.242-.157-.037.012-.075-.032-.1-.025.005-.012-.1-.062-.025-.05.005,0,.015.007.01.01l.015-.012c-.037-.062-.11-.045-.162-.085.012.015.035.025.015.03l-.05-.032.017-.007-.07-.055v.025c-.032-.032-.025-.067-.085-.07-.025,0,.025.042-.02.025a1.436,1.436,0,0,0-.167-.147c0,.025-.025.01-.042,0l.007-.017c-.08-.02,0-.05-.08-.075l.012-.007-.037.025c-.08,0-.012-.05-.1-.05.025.012-.01.042-.037.015l.017-.01c-.02-.007-.03,0-.04-.015.015,0,.02-.02-.007-.032l.03-.007-.067,0c-.025-.04-.1-.057-.1-.09,0,0-.075-.062-.11-.05.025,0-.017-.037.007-.05a.163.163,0,0,1-.117-.055h.005c-.082-.075-.174-.075-.249-.15-.008.02-.045-.017-.05.012-.1-.03-.13-.15-.2-.092-.042-.02-.037-.045-.055-.062l.012,0-.155-.09c-.032-.01-.057.02-.1-.017.025,0,0-.012-.015-.025.012,0,.02,0,0-.025a.028.028,0,0,1-.02,0c-.032-.017-.025-.01-.015,0s0,0,0,.012c-.025-.037-.09-.055-.08-.08-.095-.05-.174-.07-.259-.107,0-.017.025-.017.05-.007l-.057-.03c.01-.017.037.01.057.017-.05-.067-.15-.055-.212-.125l-.025,0,0,0c-.005.007-.025.007-.04,0,0-.025.025-.035-.017-.057-.02-.032-.09-.045-.132-.062.02.015.008.02,0,.02s-.02-.032-.04-.035l.01-.02c-.005.025-.062-.01-.075-.007,0-.025.037,0,.05,0l-.115-.067c-.05-.01-.005.025-.035.03a.289.289,0,0,1-.115-.062l0,.025a.283.283,0,0,1-.15-.1c-.588-.164-.224.132-.224.132a2.191,2.191,0,0,0,.553.3Z" transform="translate(-179.404 -142.71)" fill="#fff"/>
          <circle id="椭圆_7" data-name="椭圆 7" cx="0.832" cy="0.832" r="0.832" transform="translate(8.898 8.823)" fill="#fff"/>
        </g>
      </g>
      <rect id="矩形_53" data-name="矩形 53" width="348" height="2" transform="translate(22 754.866)" fill="#e3ebd2"/>
      <g id="组_95" data-name="组 95" transform="translate(-2 -21)">
        <g id="组_89" data-name="组 89" transform="translate(-2.98 6)">
          <g id="组_78" data-name="组 78" transform="translate(-1046.725 -167.452)">
            <path id="路径_1345" data-name="路径 1345" d="M162.023,276.749a4.15,4.15,0,0,0-1.472,3.155c0,1.545.025,3.413-1.077,4.591-1.453,1.554-1.914,2.224-2.326,4.989-.435,2.924.679,5.15,1.189,5.552a1.244,1.244,0,0,0,1.7.056c1.528-1.019,1.8-3.246,3.117-3.741,1.813-.679,3.231-1.3,3.735-2.649.458-1.211.552-2.42,1.7-3.078A4.846,4.846,0,0,0,171.2,280.3c-.309-2.231.6-2.671,2.211-3.968,2.161-1.739,1.757-3.91.153-5.349a4.087,4.087,0,0,0-4.415-.441c-2.747,1.29-1.1,3.494-4.374,4.663l-2.757,1.542Z" transform="translate(936.844 447.938)" fill="#40b955"/>
            <path id="路径_1347" data-name="路径 1347" d="M73.58,370.366a5.193,5.193,0,0,0,2.1,2.961c1.946,1.382,3.939,1.117,5.255,1.647s2.043,1.647,3.017,1.861a1.51,1.51,0,0,0,1.557-.319c.657-.8.679-3.138-1.121-4.839s-3.844-1.33-5.595-2.287-2.773-2.924-4.525-1.754c0,0-1.112.554-.693,2.729Z" transform="translate(1006.222 367.262)" fill="#56cc6c"/>
            <path id="路径_1349" data-name="路径 1349" d="M92.585,386.475a.087.087,0,0,1-.076-.046l-.017-.037-.034-.063-.017-.034a8.4,8.4,0,0,0-1.455-1.907,19.872,19.872,0,0,0-5.315-3.192c-.447-.2-.832-.379-1.087-.52a17.956,17.956,0,0,1-2.3-1.6.084.084,0,0,1,.107-.131,17.4,17.4,0,0,0,2.275,1.586c.251.136.633.311,1.078.513a19.993,19.993,0,0,1,5.362,3.221,8.636,8.636,0,0,1,1.487,1.948l.017.034.037.068.017.037a.083.083,0,0,1-.035.112h0a.068.068,0,0,1-.037.01Z" transform="translate(998.941 357.591)" fill="#fff"/>
            <path id="路径_1350" data-name="路径 1350" d="M143.433,421.59a7.531,7.531,0,0,0-.759-2.381l-.024-.046.153-.078.024.048a7.49,7.49,0,0,1,.776,2.44l-.17.017Zm1.413-2.581.169-.017.237,2.587-.169.017Zm1.354,2.512.453-3.168.17.024-.453,3.168Z" transform="translate(948.799 324.856)" fill="#a7c4b8"/>
            <path id="路径_1351" data-name="路径 1351" d="M74.284,258.636c1.452,1.375,1.922,2.729,1.671,5.681-.268,3.131,1.426,4.992,4.044,6.554,2.026,1.206,1.166,3.252,3.257,4.966,1.178.964,2.1,3.182,3.319,2.2,1.329-1.065,2.788-7.023,1.168-9.318-.723-1.024-2.323-1.878-1.637-3.888s-.08-4.747-1.443-5.675-1.9-2-2.326-4.938-4.834-7.043-8.609-4.776c-4.012,2.406-.438,8.257.552,9.194Z" transform="translate(1007.838 465.662)" fill="#57d46e"/>
            <path id="路径_1353" data-name="路径 1353" d="M104.411,290.443a.057.057,0,0,1-.017,0,.087.087,0,0,1-.068-.1,28.984,28.984,0,0,0-.611-3.338,70.668,70.668,0,0,0-3.114-9.736,92.985,92.985,0,0,0-6.744-13.741.085.085,0,0,1,.027-.117h0a.088.088,0,0,1,.119.027,93.227,93.227,0,0,1,6.758,13.77,70.767,70.767,0,0,1,3.121,9.763,22.591,22.591,0,0,1,.611,3.406.078.078,0,0,1-.081.068Zm1.812-.645h-.005a.083.083,0,0,1-.08-.086v0c0-.051.323-5.111,4.788-12.458s8.179-10.256,8.218-10.283a.083.083,0,0,1,.117.014l0,0a.083.083,0,0,1-.017.119c-.039.029-3.732,2.924-8.174,10.239s-4.761,12.327-4.763,12.378a.088.088,0,0,1-.087.082Z" transform="translate(989.318 453.504)" fill="#fff"/>
          </g>
          <g id="组_77" data-name="组 77" transform="translate(-1075.853 -181)">
            <g id="组_76" data-name="组 76">
              <path id="矩形_56" data-name="矩形 56" d="M1,0H17a1,1,0,0,1,1,1V3a0,0,0,0,1,0,0H0A0,0,0,0,1,0,3V1A1,1,0,0,1,1,0Z" transform="translate(1114 758)" fill="#ffbf29"/>
              <path id="路径_1536" data-name="路径 1536" d="M0,0H14L13,12H1Z" transform="translate(1116 761)" fill="#f5ac00"/>
            </g>
            <path id="路径_1469" data-name="路径 1469" d="M136.957,456.375h-.3a.152.152,0,1,1,0-.3h.3a.152.152,0,1,1,0,.3Zm10.668,0h-.594a.152.152,0,1,1,0-.3h.594a.152.152,0,1,1,0,.3Zm-1.779,0h-.594a.152.152,0,1,1,0-.3h.594a.152.152,0,1,1,0,.3Zm-1.779,0h-.594a.152.152,0,1,1,0-.3h.594a.152.152,0,1,1,0,.3Zm-1.779,0H141.7a.152.152,0,1,1,0-.3h.594a.152.152,0,1,1,0,.3Zm-1.779,0h-.594a.152.152,0,1,1,0-.3h.594a.152.152,0,1,1,0,.3Zm-1.779,0h-.594a.152.152,0,1,1,0-.3h.594a.152.152,0,1,1,0,.3Zm10.385,0h-.3a.152.152,0,1,1,0-.3h.3a.152.152,0,1,1,0,.3Z" transform="translate(980.129 308.296)" fill="#ffd593"/>
          </g>
        </g>
        <g id="组_86" data-name="组 86" transform="translate(14 505)">
          <g id="组_91" data-name="组 91" transform="translate(-5.29)">
            <path id="路径_1591" data-name="路径 1591" d="M51.089,103.057l-5.992,8.6v-8.6Z" transform="translate(-29.807 -6.661)" fill="#e39157" fill-rule="evenodd"/>
            <path id="路径_1592" data-name="路径 1592" d="M51.816,99.72h3.4l-6.792,9.736h-3.4Z" transform="translate(-29.734 -4.456)" fill="#edb78e" fill-rule="evenodd"/>
            <path id="路径_1593" data-name="路径 1593" d="M166,103.057l-5.992,8.6v-8.6Z" transform="translate(-111.613 -6.661)" fill="#e39157" fill-rule="evenodd"/>
            <path id="路径_1594" data-name="路径 1594" d="M166.728,99.72h3.4l-6.792,9.736h-3.4Z" transform="translate(-111.54 -4.456)" fill="#edb78e" fill-rule="evenodd"/>
          </g>
          <g id="组_90" data-name="组 90">
            <path id="路径_1590" data-name="路径 1590" d="M0,93.453A.423.423,0,0,1,.385,93h58.7a.423.423,0,0,1,.385.453v2.491a.423.423,0,0,1-.385.453H.385A.423.423,0,0,1,0,95.943Z" transform="translate(0)" fill="#e39157" fill-rule="evenodd"/>
            <path id="路径_1595" data-name="路径 1595" d="M33.6,93.453A.419.419,0,0,1,33.974,93H85.4a.419.419,0,0,1,.374.453v2.491a.419.419,0,0,1-.374.453H33.974a.419.419,0,0,1-.374-.453Z" transform="translate(-21.77)" fill="#edb78e" fill-rule="evenodd"/>
          </g>
        </g>
      </g>
      <path id="路径_1315" data-name="路径 1315" d="M551.19,1005.18c66.273,0,120-3.582,120-8s-53.727-8-120-8-120,3.582-120,8S484.927,1005.18,551.19,1005.18Z" transform="translate(-395.19 -227.18)" fill="#e3ebd2"/>
      <path id="路径_1230" data-name="路径 1230" d="M864.69,963.94c19.886,0,36-2.679,36-6s-16.12-6-36-6-36,2.679-36,6S844.807,963.94,864.69,963.94Z" transform="translate(-551.652 -187.94)" fill="#dae2c9"/>
      <g id="组_88" data-name="组 88" transform="translate(-16.247 -26.396)">
        <path id="路径_1296" data-name="路径 1296" d="M455.262,807.55H447.4v33.5h7.862Z" transform="translate(-396.763 -65.728)" fill="#69a5ff"/>
        <path id="路径_1297" data-name="路径 1297" d="M455.262,917.89H447.4v16.556h7.862Z" transform="translate(-396.763 -144.941)" fill="#8dbffc"/>
        <path id="路径_1298" data-name="路径 1298" d="M606.978,807.55H599.11v33.792h7.868Z" transform="translate(-505.676 -65.728)" fill="#69a5ff"/>
        <path id="路径_1299" data-name="路径 1299" d="M606.978,918.94H599.11V935.2h7.868Z" transform="translate(-505.676 -145.695)" fill="#8dbffc"/>
        <path id="路径_1300" data-name="路径 1300" d="M1153.856,903.19H1146v20.7h7.859Z" transform="translate(-898.29 -134.388)" fill="#8dbffc"/>
        <path id="路径_1301" data-name="路径 1301" d="M1153.856,807.55H1146v31.423h7.859Z" transform="translate(-898.29 -65.728)" fill="#69a5ff"/>
        <path id="路径_1302" data-name="路径 1302" d="M1324.856,807.55H1317V845.2h7.862Z" transform="translate(-1021.051 -65.728)" fill="#69a5ff"/>
        <path id="路径_1303" data-name="路径 1303" d="M1324.856,918.94H1317V935.2h7.862Z" transform="translate(-1021.051 -145.695)" fill="#8dbffc"/>
        <path id="路径_1310" data-name="路径 1310" d="M643.611,555.7l-154.68-1.3L472.6,510,439,518.6v65.878H643.6Z" transform="translate(-390.733 147.884)" fill="#c6ddff"/>
        <path id="路径_1311" data-name="路径 1311" d="M643.611,774H439v15.515H643.6Z" transform="translate(-390.733 -41.642)" fill="#69a5ff"/>
        <path id="路径_1312" data-name="路径 1312" d="M489.426,528l-29.736,7.7v51.435H658.464v-18.8H503.785Z" transform="translate(-405.586 134.962)" fill="#69a5ff"/>
        <g id="组_83" data-name="组 83" transform="translate(52.696 656.561)">
          <path id="路径_1313" data-name="路径 1313" d="M472.275,551.834c-1.078-12.883,3.5-20.554-4.632-32.9-1.078-1.6-2.124-3.317-1.047-3.851,4.872-3.76,8.127,1.275,13-.889,2.691-1.185,4.155-8.085,7.083-8.8-2.24-.118-26.15-1.066-31.979,7.966,0,0,3.617,3.436,3.975,15.047,0,0-7.95,37.434,6.875,39.211,0,0,9.027,7.9,36.131,0,0,0,.24-2.014.48-5.36-1.732,1.537-6.037-1.749-8.04-.829C484.32,565.694,472.813,566.317,472.275,551.834Z" transform="translate(-454.7 -505.311)" fill="#8dbffc"/>
          <path id="路径_1314" data-name="路径 1314" d="M504.43,505.61h-.169a51.874,51.874,0,0,0-8.519,2.756c-4.872,2.161-10.849,0-15.719,3.76-1.078.533-1.078,2.694,0,4.294,8.127,12.35,2.181,26.861,3.256,39.745.539,14.514,21.132,14.514,30.9,10.218a22.37,22.37,0,0,0,5.529-3.907C520.622,548.968,521.257,514.022,504.43,505.61Z" transform="translate(-472.299 -505.526)" fill="#c6ddff"/>
        </g>
        <path id="路径_1320" data-name="路径 1320" d="M445.356,979.235a6.423,6.423,0,1,0-.006,0Z" transform="translate(-390.683 -179.839)" fill="#013bff"/>
        <path id="路径_1321" data-name="路径 1321" d="M596.746,979.235a6.423,6.423,0,1,0-.006,0Z" transform="translate(-499.366 -179.839)" fill="#013bff"/>
        <path id="路径_1322" data-name="路径 1322" d="M1143.516,979.235a6.423,6.423,0,1,0-.006,0Z" transform="translate(-891.893 -179.839)" fill="#013bff"/>
        <path id="路径_1323" data-name="路径 1323" d="M1314.653,979.235a6.367,6.367,0,1,0-6.423-6.364,6.367,6.367,0,0,0,6.423,6.364Z" transform="translate(-1014.755 -179.839)" fill="#013bff"/>
        <path id="路径_1338" data-name="路径 1338" d="M1320.876,567.87h-6.006a2.731,2.731,0,0,1,2.748,2.714v68.189a2.731,2.731,0,0,1-2.739,2.722h6a2.731,2.731,0,0,0,2.75-2.711V570.595a2.731,2.731,0,0,0-2.736-2.725Z" transform="translate(-1019.522 106.339)" fill="#c6ddff"/>
        <g id="组_81" data-name="组 81" transform="translate(62.972 609.396)">
          <path id="路径_1546" data-name="路径 1546" d="M303.567,295.936s3.163,20.916,15.383,20.916H342.9s16.921-18.043,9-18.671l-28.285-2.244v-3.01h-20.04Z" transform="translate(-263.691 -200.244)" fill="#03344b" fill-rule="evenodd"/>
          <path id="路径_1550" data-name="路径 1550" d="M279.742,295.99s0,23.255,17.254,23.255h38.215s12.255-7,12.138-7.489a12.4,12.4,0,0,0-9.343-9.226l-29.1-6.54v-3.01H279.742Z" transform="translate(-254.946 -200.264)" fill="#064c6c" fill-rule="evenodd"/>
          <path id="路径_1553" data-name="路径 1553" d="M338.907,220.465l5.31,10.369,19.473-18.716a.47.47,0,0,0,.141-.284l.8-7.023s4.63-7.446,5.388-4.735c.283,1.013-2.114,2.2-1.654,5.51.085.613,5.04-2.735,7.167-4.2a.472.472,0,0,1,.731.479l-1.5,7.734a.471.471,0,0,1-.159.27l-7.085,5.921-18.066,24.662a6.549,6.549,0,0,1-10.978-.634l-8.564-15.066Z" transform="translate(-273.363 -165.943)" fill="#ffc4a7" fill-rule="evenodd"/>
          <path id="路径_1566" data-name="路径 1566" d="M330.657,209.773a6.082,6.082,0,0,0-8.132-2.8l-1.472.718a6.081,6.081,0,0,0-2.8,8.132l9.127,18.713,12.4-6.051Z" transform="translate(-268.855 -168.466)" fill="#12a072"/>
          <path id="路径_1567" data-name="路径 1567" d="M333.882,227l4.377,12.767-3.091,1.46Z" transform="translate(-274.819 -176.044)" fill="rgba(8,7,8,0.25)" fill-rule="evenodd"/>
          <path id="路径_1568" data-name="路径 1568" d="M273.3,209.769a5.147,5.147,0,0,1,4.587-5.116l16.817-1.838,12.649,1.769a5.147,5.147,0,0,1,4.416,4.673l4.339,52.509L273.3,264.1Z" transform="translate(-252.58 -167.166)" fill="#12a072" fill-rule="evenodd"/>
          <path id="路径_1570" data-name="路径 1570" d="M304.664,202.815l7.7,1.077,0,.21a5.965,5.965,0,1,1-11.873-.83Z" transform="translate(-262.541 -167.166)" fill="#107a58" fill-rule="evenodd"/>
          <path id="路径_1571" data-name="路径 1571" d="M282.468,228.387l-9.015,30.28V241.131Z" transform="translate(-252.637 -176.553)" fill="rgba(8,7,8,0.25)" fill-rule="evenodd"/>
          <path id="路径_1582" data-name="路径 1582" d="M300.095,188.526a4.344,4.344,0,1,0,8.66-.5l-.381-3.325s-8.233-7.66-8.279-7.714Z" transform="translate(-260.6 -152.639)" fill="#ffc4a7" fill-rule="evenodd"/>
          <path id="路径_1587" data-name="路径 1587" d="M312.833,196.123a20.675,20.675,0,0,1-2.879-.614,23.423,23.423,0,0,1-2.836-1.192s2.149,2.089,3.28,2.986a23.3,23.3,0,0,0,2.706,1.769Z" transform="translate(-264.995 -163.424)" fill="#f29d59" fill-rule="evenodd"/>
          <path id="路径_1592-2" data-name="路径 1592" d="M954.5,224.341c-.573,3.884,3.291,5.435,7.342,4.556l5.79-.5c1.987-.174,6.4-3.1,8.358-4.536,1.988-1.089,2.946-.148,5.436-4.012a9.686,9.686,0,0,0-2.193-12.368c-3.574-2.736-5.079-.245-10.774-3.064-4.375-2.168-7.771-1.171-9.426,3.637-1.157,3.361-5.963,2.1-6.53,7.72C952.14,219.31,954.979,221.061,954.5,224.341Z" transform="translate(-920.373 -203.325)" fill="#1f253f"/>
          <path id="路径_1593-2" data-name="路径 1593" d="M959,225.654c.085,3.042,4.253,8.225,10.982,7.361,3.928-.505,4.531-5.1,5.1-10.149.406-3.6,1.433-7.49.757-10.048l-6.108-1.407c.9,1.029,2.669,2.54-.028,2.777a11.174,11.174,0,0,1-6.357-1.105c-.252,3.35-2.707,3.285-2.564,4.937l.4,4.675c-2.14.41-2.691-1.7-2.694-2.814-.947-.473-2.783-.7-2.533,2.161S958.089,225.64,959,225.654Z" transform="translate(-918.757 -199.572)" fill="#ffc4a7"/>
          <path id="路径_1588" data-name="路径 1588" d="M325.606,176.064l2.352,4.613a.233.233,0,0,1-.147.332l-2.2.593Z" transform="translate(-271.745 -156.55)" fill="#f29d59" fill-rule="evenodd"/>
          <path id="路径_1589" data-name="路径 1589" d="M8.992,20.983,14.3,31.352,33.774,12.636a.47.47,0,0,0,.141-.284l.8-7.023s4.63-7.446,5.388-4.735c.283,1.013-2.114,2.2-1.654,5.51.085.613,5.04-2.735,7.167-4.2a.472.472,0,0,1,.731.479l-1.5,7.734a.471.471,0,0,1-.159.27L37.607,16.3,19.542,40.966a6.549,6.549,0,0,1-10.978-.634L0,25.267Z" transform="translate(32.436 42.191) rotate(48)" fill="#ffc4a7" fill-rule="evenodd"/>
          <path id="路径_1575" data-name="路径 1575" d="M10.723,2.95A6.082,6.082,0,0,1,19.069.87l1.4.843a6.082,6.082,0,0,1,2.08,8.346L11.83,27.905,0,20.8Z" transform="translate(6.933 41.304) rotate(-11)" fill="#12a072" fill-rule="evenodd"/>
        </g>
        <g id="组_82" data-name="组 82" transform="translate(97.371 690.477)">
          <path id="路径_1318" data-name="路径 1318" d="M693.785,652.391c2.3,5.272,21.011,17.49,26.54,7.995,10.909-3.385,18.336-9.772,28.689-4,19.465,11.789,60.671,18.539,70.561,1.808v-22.48s-12.074-7.935-38.76-4.561c0,0-16.855,2.429-30.247-.829,0,0-13.746-7.335-33.234-3.848C700.18,631.067,689.421,641.846,693.785,652.391Z" transform="translate(-670.317 -625.537)" fill="#c6ddff"/>
          <path id="路径_1319" data-name="路径 1319" d="M693.677,649.182c-10.339-5.775-22.384,1.927-33.321,5.272-6.308,1.45-15.515,4.325-17.812-.948-4.364-10.573,6.155-18.926,17.49-24.847a67.658,67.658,0,0,0-24.655,9.95s-28.6,15.608-21.039,42.264c0,0,30.633-4.325,57.291,0,0,0,59.951,7.67,90.675,0V660.351C741.258,669,713.133,661,693.677,649.182Z" transform="translate(-613.067 -627.779)" fill="#8dbffc"/>
        </g>
        <path id="路径_1337" data-name="路径 1337" d="M1143.626,638.772V570.595a2.731,2.731,0,0,1,2.737-2.725h-5.992a2.731,2.731,0,0,0-2.75,2.711v68.192a2.731,2.731,0,0,0,2.739,2.722h6.017A2.748,2.748,0,0,1,1143.626,638.772Z" transform="translate(-892.274 106.339)" fill="#69a5ff"/>
        <path id="路径_1339" data-name="路径 1339" d="M1205.654,638.772V570.595a2.731,2.731,0,0,0-2.736-2.725h-41.257a2.731,2.731,0,0,0-2.751,2.711v68.192a2.731,2.731,0,0,0,2.74,2.722h41.256A2.748,2.748,0,0,0,1205.654,638.772Zm-22.207-59.864a1.332,1.332,0,0,1-1.331,1.332h-15.4a1.331,1.331,0,0,1-1.346-1.317v-3.648a1.331,1.331,0,0,1,1.328-1.334H1182.1a1.335,1.335,0,0,1,1.343,1.326v3.642Zm20.311,1.3h-15.388a1.332,1.332,0,0,1-1.346-1.317v-3.653a1.332,1.332,0,0,1,1.332-1.331h15.4a1.331,1.331,0,0,1,1.346,1.317v3.656a1.331,1.331,0,0,1-1.326,1.337h-.008Z" transform="translate(-907.558 106.339)" fill="#c6ddff"/>
        <path id="路径_1340" data-name="路径 1340" d="M1219.414,691.1h-33.787a2.985,2.985,0,0,1-2.987-2.962V657.552a2.985,2.985,0,0,1,2.987-2.962h33.787a2.982,2.982,0,0,1,2.987,2.962v30.593A2.984,2.984,0,0,1,1219.414,691.1Z" transform="translate(-924.594 44.082)" fill="#8dbffc"/>
      </g>
      <g id="组_75" data-name="组 75" transform="translate(-850.135 -54.771)">
        <path id="路径_1506" data-name="路径 1506" d="M680.427,582.362l5.447-4.4c1.875-1.608,2.916-4.19,2.3-9.637-.763-6.8-5.028-35.2-5.028-35.2h11.523l.838,42.74,1.047,4.191-15.5,3.143Z" transform="translate(461.87 240.991)" fill="#ffc4a7"/>
        <path id="路径_1507" data-name="路径 1507" d="M676.936,636.7l14.29-3.674a4.153,4.153,0,0,1,1.116,4.529l-1.116,3.013-6.076.419-.419-1.467-3.1,1.161a11.382,11.382,0,0,1-4,.725h-4.83a1.859,1.859,0,0,1-.95-3.456l6.168-3.667-1.66,1.208a.681.681,0,0,0,.57,1.21Z" transform="translate(466.995 186.976)" fill="#174e9f"/>
        <path id="路径_1508" data-name="路径 1508" d="M754.331,580.256l-5.237-3.981c-1.876-1.608-2.933-7.333-3.352-9.637-1.466-10.266-3.142-36.874-3.142-36.874H731.075l7.961,44.835-1.047,3.771,15.713,2.724Z" transform="translate(434.485 242.81)" fill="#ffc4a7"/>
        <path id="路径_1509" data-name="路径 1509" d="M759.712,636.529l-14.289-3.674a4.152,4.152,0,0,0-1.116,4.529l1.116,3.013,6.076.419.419-1.467,3.1,1.161a11.376,11.376,0,0,0,4,.725h4.831a1.859,1.859,0,0,0,.95-3.456l-6.168-3.667,1.66,1.207a.681.681,0,0,1-.57,1.21Z" transform="translate(427.47 187.068)" fill="#174e9f"/>
        <path id="路径_1510" data-name="路径 1510" d="M708.589,357.627l-1.722-8.526-34.267-.616-2.134,24.173-1.295,61.747h46.3L709.8,383.251l.094-1A84.515,84.515,0,0,0,708.589,357.627Z" transform="translate(468.226 341.095)" fill="#58bfa1"/>
        <path id="路径_1513" data-name="路径 1513" d="M680.976,239.8l-9.484-2.489c-5.363,0-10.867-1.637-15.333.422-8.955,4.121-14.042,14.682-13.673,20.019l1.9,7.843-1.674,11.875a7.808,7.808,0,0,0,7.854,8.9l25.715-.405a3.674,3.674,0,0,0,3.6-3.281l1.812-16.874,3.352,6.444,12.125-2.614-4.324-17.755A16.534,16.534,0,0,0,680.976,239.8Z" transform="translate(495.481 404.154)" fill="#ff6767"/>
        <path id="路径_1515" data-name="路径 1515" d="M686.251,180.321c.516-4.126,4.513-4.728,6.447-4.513,1.074-.645,3.223-3.223,7.736-2.579s9.671,3.223,8.381,9.026c0,0,3.008,7.306,3.868,10.315,2.579,6.447-1.152,11.123-6.447,11.6-7.092.645-3.868,0-14.828,1.289s-11.6-7.736-9.026-13.538S685.606,185.478,686.251,180.321Z" transform="translate(461.493 435.644)" fill="#5b2f2e"/>
        <path id="路径_1516" data-name="路径 1516" d="M696.269,192.544v1.934c-.86-.214-2.579-.258-2.579,1.29,0,1.934,1.289,3.223,2.579,2.578.167,2.009,1.248,5.976,4.462,7.629a15.34,15.34,0,0,1-1.239,5.264,6.47,6.47,0,0,1-3.868,3.223c1.289,1.5,4.9,4.513,9.026,4.513s7.306-3.008,8.381-4.513a11.292,11.292,0,0,1-3.868-2.579c-1.218-1.218-1.451-4.113-1.389-6.234,2.679-1.8,3.5-5.417,3.968-7.3a1.9,1.9,0,0,0,2.579-1.934,1.947,1.947,0,0,0-2.579-1.934v-1.934A11.768,11.768,0,0,1,704,190.61c-3.094-2.063-3.868-3.009-3.868-3.223a6.635,6.635,0,0,1-1.289,3.868A4.43,4.43,0,0,1,696.269,192.544Z" transform="translate(454.699 427.934)" fill="#ffc4a7"/>
        <path id="路径_1517" data-name="路径 1517" d="M.017,0,2.95,1.467A1.5,1.5,0,0,1,1.064,2.1,1.834,1.834,0,0,1,.017,0Z" transform="translate(1156.166 629.605) rotate(-11)" fill="#fff"/>
        <path id="路径_1535" data-name="路径 1535" d="M666.9,237.208l9.484,2.489a16.534,16.534,0,0,1,11.868,12.08l4.324,17.755-12.125,2.614-2.526-4.022-1.2,13.367a29.86,29.86,0,0,0,.561,9l14.7,67.692a2.3,2.3,0,0,1-2.187,2.783l-10.981.274-13.984-51.785V240.337Z" transform="translate(500.075 404.259)" fill="#fff"/>
        <path id="路径_1261" data-name="路径 1261" d="M1040.2,374.107c1.8-10.268.958-26.943-9.582-31.957l.808,1.484s11.257,6.647,7.724,30.117a.618.618,0,0,1-.39.5c-3.5,1.4-5.627,6.975-6.826,12.4a.591.591,0,0,0,.418.681l.93.237a.546.546,0,0,0,.659-.384.565.565,0,0,0-.359-.712l-.54-.178c.658-2.7,2.425-8.962,5.088-10.534a1.09,1.09,0,0,1,1.5.346l.023.038c.421.743.6,2.018.39,4.239a27.921,27.921,0,0,1-.777,4.183l-.78,2.968-.449-.119a.565.565,0,0,0-.688.408l0,.008-.059.178a.582.582,0,0,0,.359.681l.93.3a.565.565,0,0,0,.712-.364l.006-.02c.659-2.168,2.906-10.175,1.348-13.354C1040.591,375.085,1040.142,374.344,1040.2,374.107Z" transform="translate(131.652 294.888)" fill="#5d9fff"/>
        <path id="路径_1534" data-name="路径 1534" d="M884.02,387.921c2.1-4.214,11.828-18.959,12.4-20.632,1.108-3.264,4.613-12.552,15.72-12.789l1.467,13.027a50.478,50.478,0,0,1,.449,6.735l.122,105.774s-15.751-2.018-23.057-12.718c0,0,10.6-55.271,9.327-73.817,0,0-3.355,8.516-8.024,11.155C884.56,409.079,874.888,406.318,884.02,387.921Z" transform="translate(239.678 286.967)" fill="#fff"/>
        <path id="路径_1260" data-name="路径 1260" d="M970.231,350.967s-7.778,4.157-8.168,20.513l-.9.059s-.371-15.342,9.6-21.871Z" transform="translate(183.904 288.374)" fill="#5d9fff"/>
        <g id="组_74" data-name="组 74" transform="translate(1119.969 661.57)">
          <path id="路径_1266" data-name="路径 1266" d="M902.219,393.021l23.193,2.908a1.962,1.962,0,0,1,1.7,1.6l6.707,35.046a1.979,1.979,0,0,1-2.261,2.315l-23.235-3.708a1.978,1.978,0,0,1-1.648-1.574L900,395.364a1.978,1.978,0,0,1,2.216-2.343Z" transform="translate(-899.966 -393.002)" fill="#c7ddff"/>
          <path id="路径_1267" data-name="路径 1267" d="M909.167,401.957l20.42,2.58a1.713,1.713,0,0,1,1.5,1.4l5.9,30.829a1.753,1.753,0,0,1-2.007,2.046l-20.42-3.262a1.747,1.747,0,0,1-1.439-1.4L907.22,404a1.735,1.735,0,0,1,1.948-2.046Z" transform="translate(-905.147 -399.413)" fill="#fff"/>
          <path id="路径_1270" data-name="路径 1270" d="M943.393,460.927a4.273,4.273,0,1,0-4.313-4.273,4.273,4.273,0,0,0,4.313,4.273Z" transform="translate(-928.025 -435.598)" fill="#c6ddff"/>
          <path id="路径_1271" data-name="路径 1271" d="M911.587,407.641a1.306,1.306,0,1,0-1.317-1.3,1.306,1.306,0,0,0,1.317,1.3Z" transform="translate(-907.358 -401.63)" fill="#69a5ff"/>
        </g>
        <path id="路径_1531" data-name="路径 1531" d="M693.332,320.931l23.6-3.7,10.731-2.409,1.039,5.33a6.889,6.889,0,0,1-6.742,8.209l-26.873.077-2.688,1.544a1.818,1.818,0,0,1-.261.124l-3.68,1.4a.89.89,0,0,1-.132.039l-6.115,1.3a.825.825,0,0,1-.367-1.609l4.2-1.019h-6.525a.679.679,0,0,1-.065-1.355l5.233-.5-7.717-.682a.81.81,0,0,1,.023-1.615l6.97-.414-6.493-1.024a1.009,1.009,0,0,1,.129-2.005l8.445-.24-.637-.4-1.314-3.5,3.935.657a3.678,3.678,0,0,1,.6.154Z" transform="translate(464.14 359.029)" fill="#ffc4a7"/>
        <path id="路径_1533" data-name="路径 1533" d="M903.29,442.036a.879.879,0,0,1,.946-.806.865.865,0,0,1,.185.035c.721.209,1.557.625,1.557,1.456a2.451,2.451,0,0,0,.658,1.413,3.346,3.346,0,0,1,.848,1.9c.209,1.662.24,4.155-1.289,4.1a2.7,2.7,0,0,1-2.826-1.959A22.241,22.241,0,0,1,903.29,442.036Z" transform="translate(216.892 229.956)" fill="#ffc4a7"/>
        <path id="路径_1532" data-name="路径 1532" d="M1398.37,1218.088a10.821,10.821,0,0,1-3.787,1.025,5.894,5.894,0,0,1-3.428-.79s8.906,7.063,7.962,5.084A13.482,13.482,0,0,1,1398.37,1218.088Z" transform="translate(-235.826 -584.568)" fill="#f29d59"/>
        <path id="路径_1262" data-name="路径 1262" d="M957.656,426.722a2.346,2.346,0,1,0-2.366-2.343,2.346,2.346,0,0,0,2.366,2.343Z" transform="translate(187.43 235.537)" fill="#5d9fff"/>
      </g>
    </g>
    <text id="悬壶济世_妙手回春" data-name="悬壶济世 妙手回春" transform="translate(29 458)" fill="#c4e4c9" font-size="40" font-family="YouSheBiaoTiHei"><tspan x="0" y="0">悬壶济世 妙手回春</tspan></text>
  </g>
</svg>
