<svg xmlns="http://www.w3.org/2000/svg" xmlns:xlink="http://www.w3.org/1999/xlink" width="375" height="812" viewBox="0 0 375 812">
  <defs>
    <clipPath id="clip-path">
      <rect id="矩形_5264" data-name="矩形 5264" width="375" height="812" fill="#fff"/>
    </clipPath>
    <clipPath id="clip-年度报告2-bg">
      <rect width="375" height="812"/>
    </clipPath>
  </defs>
  <g id="年度报告2-bg" clip-path="url(#clip-年度报告2-bg)">
    <rect id="矩形_5265" data-name="矩形 5265" width="375" height="812" fill="#fdfdfb"/>
    <g id="蒙版组_4" data-name="蒙版组 4" clip-path="url(#clip-path)">
      <g id="组_53398" data-name="组 53398">
        <ellipse id="椭圆_3" data-name="椭圆 3" cx="247.712" cy="327.484" rx="247.712" ry="327.484" transform="matrix(0.545, 0.839, -0.839, 0.545, 327.238, -67.308)" fill="#fef2cb"/>
        <path id="路径_64143" data-name="路径 64143" d="M277.139-40.785c117.595,0,252.053,246.913,160.317,256.256S268.318,204.943,168.882,276.58,0,229.967,0,148.148,159.544-40.785,277.139-40.785Z" transform="matrix(0.978, -0.208, 0.208, 0.978, -183.051, -2.445)" fill="#fcce7d" opacity="0.4"/>
        <path id="路径_64144" data-name="路径 64144" d="M138.881.011c51.461,0,93.178,69.388,93.178,154.982s-41.717,154.982-93.178,154.982S0,168.4,0,82.809,87.42.011,138.881.011Z" transform="matrix(0.545, 0.839, -0.839, 0.545, 414.314, 341.466)" fill="#fed3bf" opacity="0.276"/>
      </g>
    </g>
    <text id="精诚所至_杏林春暖" data-name="精诚所至 杏林春暖" transform="translate(29 458)" fill="#fe9401" font-size="40" font-family="YouSheBiaoTiHei" opacity="0.2"><tspan x="0" y="0">精诚所至 杏林春暖</tspan></text>
    <g id="组_53388" data-name="组 53388" transform="translate(0 -32.025)">
      <g id="组_53382" data-name="组 53382" transform="translate(2.286)">
        <g id="组_53381" data-name="组 53381" transform="translate(-10.636 71.985)">
          <path id="路径_64724" data-name="路径 64724" d="M400.026,288.414s-7.375-76.292-76.941-89.724a115.553,115.553,0,0,1-64.558-36.732c-2.327-2.615-4.673-5.391-7-8.346-23.67-29.976-63.3-41.439-98.459-27.793a91.439,91.439,0,0,0-32.346,21.129A88.227,88.227,0,0,0,96.77,194.937c-2.835,17.718-9.965,47.513-26.445,55.429a24.948,24.948,0,0,0-4.654,2.82c-6,4.64-18.243,16.714-14.175,35.593Z" transform="translate(-27.61 396.527)" fill="#fedea4" opacity="0.2"/>
          <path id="路径_64875" data-name="路径 64875" d="M25.091,916.375s-86.17,7.771,60.848,19.369c0,0,12.29.789-4.621,4.2-16.464,3.3,8.674,4.794,10.328,4.879,45.812,2.115,217.726,9.323,240.547-.525,0,0,14.93-4.813-14.162-6.5-19.51-1.115-1.193-1.925,0-2.012,22.278-1.8,60.507-6.85,42.255-19.718Z" transform="translate(12.353 -231.031)" fill="#fedea4" opacity="0.35"/>
          <path id="路径_64876" data-name="路径 64876" d="M15.88,916.07H352.324" transform="translate(20.092 -231.031)" fill="none" stroke="#f78d00" stroke-miterlimit="10" stroke-width="1.72" opacity="0.18"/>
        </g>
      </g>
      <g id="组_53386" data-name="组 53386" transform="translate(-301 -274)">
        <g id="组_53384" data-name="组 53384" transform="translate(-81.055 -8.416)">
          <g id="组_53383" data-name="组 53383">
            <path id="路径_64560" data-name="路径 64560" d="M937.1,914.162c38.534,0,69.772-.929,69.772-2.078S975.636,910,937.1,910s-69.772.932-69.772,2.078S898.568,914.162,937.1,914.162Z" transform="translate(-293.514 125.934)" fill="#fee8c7"/>
            <path id="路径_64562" data-name="路径 64562" d="M898.46,899.38H876.12v4.879h22.34Z" transform="translate(-299.944 133.702)" fill="#be7674"/>
            <path id="路径_64564" data-name="路径 64564" d="M1317.06,899.38h-22.34v4.879h22.34Z" transform="translate(-606.146 133.702)" fill="#be7674"/>
            <path id="路径_64565" data-name="路径 64565" d="M1016.962,624.618a5.931,5.931,0,0,0-6.012-6.9h-117.8c-3.316,0-6.35,2.339-6.015,6.9v.059h129.822Z" transform="translate(-307.987 339.734)" fill="#fee094"/>
            <path id="路径_64566" data-name="路径 64566" d="M831.75,729.165v36.063a5.57,5.57,0,0,0,5.59,5.456V723.72A5.513,5.513,0,0,0,831.75,729.165Z" transform="translate(-267.488 262.196)" fill="#fee094"/>
            <path id="路径_64567" data-name="路径 64567" d="M850.48,862.29v9.785a5.245,5.245,0,0,0,.956.089H998.174a2.043,2.043,0,0,0,.422-.029V862.29Z" transform="translate(-281.188 160.834)" fill="#fee094"/>
            <path id="路径_64568" data-name="路径 64568" d="M999.255,662.866c-.142,0-1.125-.027-1.265-.027h-2.025a5.8,5.8,0,0,1-6.012-5.545V637.61H860.132V655.1a5.789,5.789,0,0,1-6.012,5.545h-2.895a4.979,4.979,0,0,0-.956.086V701.98H999.22V662.866Z" transform="translate(-281.035 325.185)" fill="#f6b251"/>
            <path id="路径_64569" data-name="路径 64569" d="M1402.1,731.57v44.914a5.757,5.757,0,0,0,5.593-5.513V737.112A5.74,5.74,0,0,0,1402.1,731.57Z" transform="translate(-684.693 256.454)" fill="#fee094"/>
            <path id="路径_64570" data-name="路径 64570" d="M897.05,792.638h124.679S959.4,775.953,897.05,792.638Z" transform="translate(-315.254 217.208)" fill="#e99235"/>
            <path id="路径_64571" data-name="路径 64571" d="M897.05,812.84h124.679" transform="translate(-315.254 197.006)" fill="none" stroke="#be7674" stroke-linecap="round" stroke-miterlimit="10" stroke-width="1.72"/>
            <path id="路径_64572" data-name="路径 64572" d="M881.88,726.07s4.186-.6,4.073,13.366" transform="translate(-304.157 260.48)" fill="none" stroke="#be7674" stroke-linecap="round" stroke-miterlimit="10" stroke-width="1.72"/>
            <path id="路径_64573" data-name="路径 64573" d="M1366.6,732.519s-4.189-.6-4.076,13.367" transform="translate(-655.742 255.762)" fill="none" stroke="#be7674" stroke-linecap="round" stroke-miterlimit="10" stroke-width="1.72"/>
            <path id="路径_64575" data-name="路径 64575" d="M1122.023,680.31a1.734,1.734,0,1,0-1.853-1.732A1.8,1.8,0,0,0,1122.023,680.31Z" transform="translate(-478.464 296.485)" fill="#be7674"/>
            <path id="路径_64577" data-name="路径 64577" d="M1282.655,680.3a1.737,1.737,0,1,0-1.855-1.732A1.8,1.8,0,0,0,1282.655,680.3Z" transform="translate(-595.964 296.5)" fill="#be7674"/>
            <path id="路径_64578" data-name="路径 64578" d="M1205.846,735.116a1.737,1.737,0,1,0-1.856-1.732A1.8,1.8,0,0,0,1205.846,735.116Z" transform="translate(-539.778 256.399)" fill="#be7674"/>
          </g>
          <path id="路径_64640" data-name="路径 64640" d="M1268.144,779.05c1.611-2.223,2.194-4.3,1.773-6.149a3.5,3.5,0,0,0-.365-.983l-.252-4.068c-.145-3.464-1.8-4.3-3.738-3.985,0,0-19.333,3.55-19.392,3.55V766.03l-1.657,1.676h-2.868l-1.657-1.676v7.449a1.664,1.664,0,0,0,1.657,1.7h3.851a1.788,1.788,0,0,0,.561-.086,2,2,0,0,0,.591.086h1.181a2.317,2.317,0,0,0-.056.983,1.426,1.426,0,0,0,1.378,1.241.459.459,0,0,0,.2-.03,1.447,1.447,0,0,0,1.208-1.442,4.666,4.666,0,0,1,1.517-.752h7.953a2.266,2.266,0,0,0-.056.983,1.423,1.423,0,0,0,1.374,1.241.463.463,0,0,0,.2-.03,1.445,1.445,0,0,0,1.206-1.442,4.709,4.709,0,0,1,1.523-.752h3.34a7.909,7.909,0,0,1-1.319,2.54,6.4,6.4,0,0,0-1.1,2.513c-.338,1.847.226,2.827.76,3.319a1.094,1.094,0,0,0,.757.287,1.107,1.107,0,0,0,.846-.373,1.141,1.141,0,0,0-.086-1.611c-.113-.116-.2-.521-.054-1.184A4.134,4.134,0,0,1,1268.144,779.05Z" transform="translate(-566.11 232.874)" fill="#f4f8fb"/>
          <path id="路径_64641" data-name="路径 64641" d="M1247.52,794.139a2.115,2.115,0,0,1,1.772,0" transform="translate(-571.619 210.828)" fill="none" stroke="#393d39" stroke-linecap="round" stroke-linejoin="round" stroke-width="1.72" opacity="0.6"/>
        </g>
      </g>
      <g id="组_53385" data-name="组 53385" transform="translate(-382.295 -302.298)">
        <path id="路径_64544" data-name="路径 64544" d="M600.115,1013.047c49.107,0,88.915-3.572,88.915-7.975s-39.808-7.972-88.915-7.972-88.915,3.569-88.915,7.972S551.019,1013.047,600.115,1013.047Z" transform="translate(-33.008 70.226)" fill="#f78d00" opacity="0.1"/>
        <path id="路径_64545" data-name="路径 64545" d="M642.828,981.834c-7.412-1.528-7.674-8.064-7.674-8.064h-7.88a7.082,7.082,0,0,1,.293,2.638,10.519,10.519,0,0,1-1.952,5.7,5.3,5.3,0,0,0-.965,3l24.368-.061C647.467,982.4,642.828,981.834,642.828,981.834Z" transform="translate(-114.824 87.051)" fill="#03815a"/>
        <path id="路径_64546" data-name="路径 64546" d="M624.685,1013.55a6.865,6.865,0,0,0,.279,2.607H649.5a3.805,3.805,0,0,0-.586-2.607Z" transform="translate(-114.831 58.364)" fill="#fff"/>
        <path id="路径_64547" data-name="路径 64547" d="M624.12,639.43v94.907h6.246l6.215-94.907Z" transform="translate(-114.441 328.163)" fill="#03815a"/>
        <path id="路径_64548" data-name="路径 64548" d="M646.615,639.43h-1.6l-9.2,94.907h11.176l8.142-83.394,1.115-11.513Z" transform="translate(-122.872 328.163)" fill="#06a070"/>
        <path id="路径_64549" data-name="路径 64549" d="M581.374,996.564c-7.412-1.528-7.674-8.064-7.674-8.064h-7.88a6.829,6.829,0,0,1,.279,2.638,10.5,10.5,0,0,1-1.952,5.694,5.729,5.729,0,0,0-.934,3.72l24.365-.719C586.073,997.253,581.374,996.564,581.374,996.564Z" transform="translate(-70.499 76.429)" fill="#03815a"/>
        <path id="路径_64550" data-name="路径 64550" d="M563.279,1028.59a7.174,7.174,0,0,0,.279,2.509H588.1a3.926,3.926,0,0,0-.527-2.509Z" transform="translate(-70.554 47.517)" fill="#fff"/>
        <path id="路径_64551" data-name="路径 64551" d="M566.082,639.415,566,653.176l-.586,84.768h14.444l7.794-83.335,1.428-15.2Z" transform="translate(-72.102 328.177)" fill="#06a070"/>
        <path id="路径_64555" data-name="路径 64555" d="M600.291,344.652s6.653-1.021,6.692-10.317c3.123-6.176,8.9-3.028,9.921,3.087a27.606,27.606,0,0,0,.5,9.383s-1.431,13.106-7.208,15.615C610.182,362.406,598.06,352.033,600.291,344.652Z" transform="translate(-97.06 550.6)" fill="#fac897"/>
        <path id="路径_64556" data-name="路径 64556" d="M623.733,331.8a29.013,29.013,0,0,0-.312-4.8,22.113,22.113,0,0,1,11.145,3.311,16.852,16.852,0,0,0-.906,3.873C630.6,340.635,627.225,332.667,623.733,331.8Z" transform="translate(-113.998 555.786)" fill="#f29d59"/>
        <path id="路径_64574" data-name="路径 64574" d="M961.244,680.443a1.8,1.8,0,1,0-1.924-1.8A1.865,1.865,0,0,0,961.244,680.443Z" transform="translate(-356.173 301.18)" fill="#d9e2eb"/>
        <path id="路径_64576" data-name="路径 64576" d="M1042.767,735.249a1.8,1.8,0,1,0-1.927-1.8A1.868,1.868,0,0,0,1042.767,735.249Z" transform="translate(-414.962 261.661)" fill="#d9e2eb"/>
        <path id="路径_64579" data-name="路径 64579" d="M920.6,970.1c-2.392-4.824-.672-5.875-.672-5.875-5.574-7.462-7.621,5.487-7.621,5.487-2.1,1.952-5.457,2.186-6.625,2.231a14.732,14.732,0,0,0-1.634.12c-3.647.541-5.019,2.426-5.544,4.258h24.862C923.367,972.984,920.6,970.1,920.6,970.1Z" transform="translate(-312.312 95.603)" fill="#263169"/>
        <path id="路径_64580" data-name="路径 64580" d="M898.238,1012.47a5.429,5.429,0,0,0-.145,2.51h24.627a6.857,6.857,0,0,0,.234-2.509Z" transform="translate(-311.959 59.142)" fill="#fff"/>
        <path id="路径_64581" data-name="路径 64581" d="M1039.526,976.922c-1.169-2.37-1.341-3.837-1.227-4.707a3.115,3.115,0,0,0-1.748-3.268c-3.854-1.673-5.3,7.585-5.3,7.585-2.1,1.952-5.457,2.189-6.625,2.231a14.813,14.813,0,0,0-1.634.12c-3.589.538-4.9,1.651-5.543,4.286h24.865A10.714,10.714,0,0,0,1039.526,976.922Z" transform="translate(-398.094 90.675)" fill="#263169"/>
        <path id="路径_64582" data-name="路径 64582" d="M1017.163,1018.92a5.64,5.64,0,0,0-.176,2.61h24.628a6.694,6.694,0,0,0,.234-2.61Z" transform="translate(-397.704 54.491)" fill="#fff"/>
        <path id="路径_64583" data-name="路径 64583" d="M959.424,655.88,958.9,668.95a14.057,14.057,0,0,0,5.836,1.5Z" transform="translate(-355.87 316.299)" fill="#263169"/>
        <path id="路径_64584" data-name="路径 64584" d="M956.284,704.25a14.056,14.056,0,0,1-5.836-1.5l-3.268,78.982,8.287.329,12.855-44.626Z" transform="translate(-347.418 282.499)" fill="#4d5c95"/>
        <path id="路径_64585" data-name="路径 64585" d="M960.474,645.13l-.324,7.584,17.246,44.1,12.637-43.946Z" transform="translate(-356.772 324.052)" fill="#263169"/>
        <path id="路径_64586" data-name="路径 64586" d="M1015.764,663.3l-30.494,1.14,2.685,11.12a108.043,108.043,0,0,0,27.781-6.595Z" transform="translate(-374.887 310.949)" fill="#263169"/>
        <path id="路径_64587" data-name="路径 64587" d="M995,690.126l19.58,81.208,8.025-2.061.176-85.733A107.156,107.156,0,0,1,995,690.126Z" transform="translate(-381.904 296.352)" fill="#515d9a"/>
        <path id="路径_64588" data-name="路径 64588" d="M967.563,328.97c-.962-1.977-3.067-4.046-7.732-3.148,0,0-4.816,1.26-2.482,9.684a26.3,26.3,0,0,1,2.833,3.416,7.118,7.118,0,0,0,3.53,2.069C968.642,340.121,968.5,333.735,967.563,328.97Z" transform="translate(-354.291 554.479)" fill="#f29d59"/>
        <path id="路径_64589" data-name="路径 64589" d="M980.984,345.135s-3.9-5.426-3.764-9.085a34.411,34.411,0,0,0-1.545-4.74c-.586,3.868-1.548,14.33-6.626,11.751,1.115,1.673,1.751,4.183,1.021,5.577,0,0,4,5.755,9.835,2.158C979.911,350.77,982.239,349.421,980.984,345.135Z" transform="translate(-363.19 550.365)" fill="#fac897"/>
        <g id="组_53373" data-name="组 53373" transform="translate(587.797 858.626)">
          <path id="路径_64590" data-name="路径 64590" d="M977.029,309.693c-.466-.627-4.23,1.439-5.078,1.439-.058,1.26.028,4.316,2.365,5.577a10.783,10.783,0,0,0,1.166,3.087,2.905,2.905,0,0,0,4.846.181C982.806,315.911,979.393,312.164,977.029,309.693Z" transform="translate(-953.07 -292.586)" fill="#3d4fa2"/>
          <path id="路径_64591" data-name="路径 64591" d="M934.561,259.563a5.346,5.346,0,0,0-1.021-1.648c-.965-1.115-2.861-3.449-3.268-5.128,0,0-3.1-8.812-17.891-.719a14.337,14.337,0,0,1-5.192,1.171,2.758,2.758,0,0,0-2.92,2.727,3.018,3.018,0,0,0,.934,2.158,10.9,10.9,0,0,0,4.933.558c4.668-.6,6.826,3.09,11.234,3.9,1.2.209.349,2.457.379,3.686a11.161,11.161,0,0,0,1.427.39s-.028.209-.056.538a2.385,2.385,0,0,1,2.072.75c2.393,2.459,3.675,6.3,6.3,8.086.031-.031.059-.092.086-.12C933.655,272.814,937.1,266.158,934.561,259.563Z" transform="translate(-904.27 -248.649)" fill="#253169"/>
          <path id="路径_64592" data-name="路径 64592" d="M912.215,273.687a8.372,8.372,0,0,0-4.495,2.429,8.754,8.754,0,0,0,3.385,1.977s8.29,4.587,13.134,6.176a15.617,15.617,0,0,0-.379-3.686C922.722,275.485,916.883,273.087,912.215,273.687Z" transform="translate(-906.758 -266.64)" fill="#3d4fa2"/>
        </g>
        <path id="路径_64593" data-name="路径 64593" d="M923.208,285.519c.117,3.748,1.168,16.968,10.186,19.366,0,0,6.3.719,6.692-7.643,0,0,1.021-.061,1.458-3.625,0,0-.231-3.987-2.713-3.087a.814.814,0,0,1-1.115-.661c-.323-2.878-2.247-9.442-13.6-5.663A1.345,1.345,0,0,0,923.208,285.519Z" transform="translate(-330.13 585.159)" fill="#fac897"/>
        <path id="路径_64596" data-name="路径 64596" d="M580.814,370.673s-1.72,14.3-12.021-1.673c0,0-17.829,4.046-18.764,25.628h12.286l.583,58.125s19.26,3.327,26.147-1.977L587.7,393.613s7.47.778,11.089-2.158C598.791,391.469,591.466,370.308,580.814,370.673Z" transform="translate(-61.011 523.185)" fill="#06a070"/>
        <path id="路径_64597" data-name="路径 64597" d="M699.872,409V401.9s-21.535,4.018-26.992-8.452a52.96,52.96,0,0,1-1.9-5.036c-1.138-3.449-4.7-13.189-15.933-13.429l-1.486,13.669a57.546,57.546,0,0,0-.438,7.074l-.117,93.413s15.964-2.1,23.375-13.4c0,0-11.907-48.2-10.6-67.689a1.887,1.887,0,0,1,.145.181,24.5,24.5,0,0,1,.324-2.638C673.407,416.648,691.7,416.887,699.872,409Z" transform="translate(-135.276 518.872)" fill="#fff"/>
        <path id="路径_64598" data-name="路径 64598" d="M698.913,481a11.569,11.569,0,0,0-.5,3.539c1.461,1.8,14.037,16.036,34.2,2.429v-1.506C722.112,491.964,706.062,492.023,698.913,481Z" transform="translate(-168.019 442.415)" fill="#c5c8dd"/>
        <path id="路径_64599" data-name="路径 64599" d="M533.292,389.224c3.648-10.643,10.825-16.937,20.573-19.187-.321-.689-.5-1.076-.5-1.076-6.274,1.076-14.221,6.235-17.567,9.74-3.037,3.179-5.254,8.365-6.188,13.22-2.13,11.154-.262,18.945.876,25.9C530.693,405.74,530.2,398.305,533.292,389.224Z" transform="translate(-45.587 523.214)" fill="#c5c8dd"/>
        <path id="路径_64600" data-name="路径 64600" d="M561.923,383.725c-1.9-4.74-3.881-8.993-4.757-10.875-9.776,2.25-18.4,9.355-21.273,19.187-2.393,8.184-3.561,22.9-1.341,31.925,2.072,6.893,4.988,14.118,4.988,14.118l-6.36,37.794c10.273,8.993,30.787,11.779,30.787,11.779l.466-90.677A34.25,34.25,0,0,0,561.923,383.725Z" transform="translate(-48.859 520.408)" fill="#fff"/>
        <path id="路径_64601" data-name="路径 64601" d="M539.543,606.75l-6.363,37.8s10.652-4.768,23.49-9.654a19.431,19.431,0,0,1-13.6-4.378l1.283-14.9,5.05,2.629,1.6-2.248-7.353-1.977Z" transform="translate(-48.859 351.73)" fill="#c5c8dd"/>
        <path id="路径_64602" data-name="路径 64602" d="M606.6,409.006,601,403.46l7,3.6Z" transform="translate(-97.768 498.334)" fill="#dcecff"/>
        <path id="路径_64603" data-name="路径 64603" d="M658.866,384.11l3.53,5.875-4.523,3.21,2.1,3.067-3.416,18.125" transform="translate(-137.836 512.288)" fill="none" stroke="#c5c8dd" stroke-linecap="round" stroke-miterlimit="10" stroke-width="1.72"/>
        <path id="路径_64604" data-name="路径 64604" d="M897.975,552.984c1.344-4.049-2.275-7.554-4.026-6.057-4.319,3.625-7.06,8.923-14.268,9.5,4.785,2.727,10.8,2.579,18.18-3.566l.114,1.2a6.287,6.287,0,0,0,0-1.079Z" transform="translate(-298.74 395.126)" fill="#a76639"/>
        <path id="路径_64605" data-name="路径 64605" d="M877.917,380.89s-3.21,6.8-10.875,3.508a15.943,15.943,0,0,0-7,1.559s-12.782,5.875-15.933,38.55c0,0-.837,10.1-13.482-15.679l-4.492,2.7s4.492,19.483,14.94,25.375c5.156.9,11.051-1.885,15.37-5.51,1.751-1.5,2.627.6,2.917,2.1a6,6,0,0,1,0,1.048l3.346,31.925s14.123,6.3,38.2-1.952C900.941,464.554,919.674,383.408,877.917,380.89Z" transform="translate(-260.122 514.61)" fill="#da925f"/>
        <path id="路径_64606" data-name="路径 64606" d="M917.77,496.711s48.24,33.6,52.116-10.791c0,0,1.782,6.385,1.2,22.307C971.113,508.222,950.919,532.055,917.77,496.711Z" transform="translate(-326.209 438.867)" fill="#a76639"/>
        <path id="路径_64607" data-name="路径 64607" d="M685.667,648.89l2.189,11.572s-3.65,5.019-11.614,3.988L676,656" transform="translate(-151.855 321.34)" fill="none" stroke="#c5c8dd" stroke-linecap="round" stroke-miterlimit="10" stroke-width="1.72"/>
        <path id="路径_64608" data-name="路径 64608" d="M586.042,636.86l2.247,5.995-7.807-3.809-.262-3.806Z" transform="translate(-82.783 331.184)" fill="#fac897"/>
        <path id="路径_64609" data-name="路径 64609" d="M659.9,371.2s7.791,4.317,8.17,21.493l.9.059s.906-16.156-9.2-23.021Z" transform="translate(-140.15 522.658)" fill="#06a070"/>
        <path id="路径_64610" data-name="路径 64610" d="M584,395.353c-1.838-10.761-.962-28.3,9.718-33.6l-.817,1.559s-11.41,6.985-7.808,31.657a.65.65,0,0,0,.41.538c3.561,1.47,5.691,7.314,6.943,13.042a.611.611,0,0,1-.438.719l-.97.237a.558.558,0,0,1-.672-.39.622.622,0,0,1,.351-.75l.558-.179c-.672-2.819-2.451-9.414-5.164-11.062a1.09,1.09,0,0,0-1.548.418c-.41.781-.614,2.128-.41,4.461a27.721,27.721,0,0,0,.789,4.378l.781,3.123.435-.12a.588.588,0,0,1,.7.418l.059.181a.608.608,0,0,1-.382.72l-.962.329a.558.558,0,0,1-.728-.39c-.672-2.278-2.947-10.7-1.372-14.029A4.524,4.524,0,0,0,584,395.353Z" transform="translate(-84.734 528.413)" fill="#06a070"/>
        <path id="路径_64611" data-name="路径 64611" d="M831.983,449.87l-17.539,3.987a2.1,2.1,0,0,1-2.51-1.648l-5.543-25.751a2.158,2.158,0,0,1,1.6-2.576l17.539-3.988a2.1,2.1,0,0,1,2.51,1.648l5.543,25.751a2.142,2.142,0,0,1-1.6,2.577Z" transform="translate(-245.848 486.517)" fill="#a7c3ff"/>
        <path id="路径_64612" data-name="路径 64612" d="M834.059,453.17l-15.445,3.508a2.1,2.1,0,0,1-2.51-1.648l-4.933-22.812a2.164,2.164,0,0,1,1.606-2.579l15.437-3.505a2.1,2.1,0,0,1,2.51,1.648l4.938,22.818A2.169,2.169,0,0,1,834.059,453.17Z" transform="translate(-249.297 482.018)" fill="#fff"/>
        <path id="路径_64613" data-name="路径 64613" d="M684.175,451.811a2.459,2.459,0,1,0-2.4-2.46A2.429,2.429,0,0,0,684.175,451.811Z" transform="translate(-156.023 467.012)" fill="#06a070"/>
        <path id="路径_64614" data-name="路径 64614" d="M687.269,453.76a1.23,1.23,0,1,0-1.2-1.23A1.216,1.216,0,0,0,687.269,453.76Z" transform="translate(-159.117 463.833)" fill="#fff"/>
        <path id="路径_64615" data-name="路径 64615" d="M605.054,377.13,601,384.444l6.971,3.6-2.275,3.148s5.488,10.038,6.071,18.125" transform="translate(-97.768 517.322)" fill="none" stroke="#c5c8dd" stroke-linecap="round" stroke-miterlimit="10" stroke-width="1.72"/>
        <path id="路径_64616" data-name="路径 64616" d="M913.528,499.649c-.262-.418-.9-1.408-1.168-1.8l-1.079,6.567a11.552,11.552,0,0,0,1.81.9Z" transform="translate(-321.529 430.264)" fill="#f29d59"/>
        <path id="路径_64617" data-name="路径 64617" d="M875.955,474.422a.583.583,0,0,0-.906.658l1.082,3.449a17.533,17.533,0,0,1-4.183-2.97,3.392,3.392,0,0,0-2.072-.867c-1.693-.061-2.158,1.227-2.231,2.487a6.572,6.572,0,0,0,1.341,4.347c2.713,3.327,8.725,5.4,11.324,6.235l.962-6.266C878.375,477.059,876.889,475.141,875.955,474.422Z" transform="translate(-290.054 447.248)" fill="#fac897"/>
        <path id="路径_64619" data-name="路径 64619" d="M816.667,445.258a1.168,1.168,0,1,0-1.138-1.168,1.151,1.151,0,0,0,1.138,1.168Z" transform="translate(-252.478 469.876)" fill="#c6ddff"/>
        <path id="路径_64626" data-name="路径 64626" d="M849.008,474.552c1.447-.329,2.231-2.367,1.771-4.548s-2.027-3.684-3.475-3.346-2.231,2.364-1.768,4.548S847.56,474.881,849.008,474.552Z" transform="translate(-274.021 452.793)" fill="#c6ddff"/>
        <path id="路径_64627" data-name="路径 64627" d="M932.811,438.4s-1.693,11.9,0,18.5C932.811,456.868,928.871,450.279,932.811,438.4Z" transform="translate(-335.793 473.137)" fill="#a76639"/>
        <path id="路径_64660" data-name="路径 64660" d="M1001.49,446.67s13.892-3.6,10.038-26.44C1011.528,420.23,1019.991,442.323,1001.49,446.67Z" transform="translate(-386.584 486.24)" fill="#a76639"/>
        <g id="组_53378" data-name="组 53378" transform="translate(496.822 851.323)">
          <g id="组_53377" data-name="组 53377" transform="translate(0 0)">
            <g id="组_53374" data-name="组 53374" transform="translate(0 7.411) rotate(-14)">
              <path id="路径_64591-2" data-name="路径 64591" d="M1.29,16.705C.4,13.732-.334,12.844.157,12.3c1.082-1.25-2-3.554,3.664-5.749S6.466-4.764,21.539,3.21a16.075,16.075,0,0,0,5.821,1.313,3.092,3.092,0,0,1,3.273,3.057A3.384,3.384,0,0,1,29.586,10a12.217,12.217,0,0,1-5.53.625C18.823,9.953,16.4,14.089,11.461,15c-1.341.234-.391,2.754-.425,4.133a12.51,12.51,0,0,1-1.6.438s.031.234.063.6a2.674,2.674,0,0,0-2.323.841c-2.683,2.757,3.258,4.359.313,6.366C7.453,27.348,3.73,24.228,3.7,24.2,1.376,20.717,2.175,19.679,1.29,16.705Z" transform="translate(0 0)" fill="#5b2f2e"/>
              <path id="路径_64592-2" data-name="路径 64592" d="M13.483.1a9.386,9.386,0,0,1,5.039,2.723,9.814,9.814,0,0,1-3.8,2.217S5.433,10.183,0,11.965A17.509,17.509,0,0,1,.428,7.832C1.7,2.118,8.249-.571,13.483.1Z" transform="translate(11.033 7.176)" fill="#2b0d0d"/>
            </g>
          </g>
          <path id="路径_64917" data-name="路径 64917" d="M20.558,2.753c-.131,4.2-1.31,19.023-11.42,21.712,0,0-7.065.806-7.5-8.569,0,0-1.144-.069-1.635-4.064,0,0,.259-4.47,3.042-3.461A.913.913,0,0,0,4.292,7.63C4.655,4.4,6.812-2.955,19.539,1.281A1.507,1.507,0,0,1,20.558,2.753Z" transform="translate(7.078 14.784) rotate(-14)" fill="#fac897"/>
        </g>
      </g>
      <g id="组_53344" data-name="组 53344" transform="translate(-1325.737 -329.544)">
        <path id="路径_64190" data-name="路径 64190" d="M206.074,519.3s.85-8.479,8.81-12.164a9.936,9.936,0,0,0,5.631-7.068,7.894,7.894,0,0,0-.024-3.331,18.9,18.9,0,0,1-.8-7.344,9.286,9.286,0,0,1,2.079-4.946,13.506,13.506,0,0,0,3.153-7.6,8.825,8.825,0,0,0-2-5.981,12.321,12.321,0,0,1-2.552-9.514s1.4-10.019-5.2-10.871c0,0-7.51.581-6.557,12.241,0,0,1.026,5.755-1.276,9.64,0,0-4.981,4.972-1.928,14.513,0,0,2.3,5.325-1.2,9.084C204.221,495.985,198.566,502.066,206.074,519.3Z" transform="translate(1176.069 540.925)" fill="#40b955"/>
        <path id="路径_64191" data-name="路径 64191" d="M147.518,481.549s.826-12.921-9.334-18.424c0,0-2.955-6.864-1.1-12.012a27.236,27.236,0,0,0,2-13.223s-5.707-8.279-1.376-17.439c0,0,5.555-3.837,5.781-12.519,0,0,.376-12.517,7.133-12.238,0,0,7.433,2.22,4.4,16.278,0,0-2.052,6.838-.435,12.036,0,0,4.1,7.068-.652,18.1,0,0-3.261,6.057-.4,11.306C153.525,453.435,158.106,462.017,147.518,481.549Z" transform="translate(1227.792 583.803)" fill="#57d46e"/>
        <path id="路径_64192" data-name="路径 64192" d="M189.577,449.22l-1.957,79.849" transform="translate(1187.461 541.911)" fill="none" stroke="#fff" stroke-miterlimit="10" stroke-width="1.73"/>
        <path id="路径_64193" data-name="路径 64193" d="M223.644,506.33l-8.834,66.5" transform="translate(1166.183 497.217)" fill="none" stroke="#fff" stroke-miterlimit="10" stroke-width="1.73"/>
        <path id="路径_64194" data-name="路径 64194" d="M101.754,563.51s-.952-7.7-8.262-10.871a9.132,9.132,0,0,1-5.307-6.336,6.9,6.9,0,0,1-.05-3.026,16.841,16.841,0,0,0-.15-9.895s-6.231-5.022-3.753-12.365a11.156,11.156,0,0,0,3.261-10S85.985,501.931,91.988,501c0,0,6.857.352,6.233,11,0,0-.8,5.275,1.376,8.758,0,0,4.655,4.416,2.052,13.173,0,0-1.978,4.92,1.276,8.251C102.955,542.209,108.212,547.66,101.754,563.51Z" transform="translate(1268.826 501.388)" fill="#40b955"/>
        <path id="路径_64195" data-name="路径 64195" d="M127.66,570.29l8.536,47.445" transform="translate(1234.385 447.163)" fill="none" stroke="#fff" stroke-miterlimit="10" stroke-width="1.73"/>
        <path id="路径_64197" data-name="路径 64197" d="M157.132,803.476h-20.8L134.11,781.66h25.253Z" transform="translate(1229.337 281.749)" fill="#e39157"/>
        <path id="路径_64198" data-name="路径 64198" d="M147.23,797h19.1" transform="translate(1219.07 269.744)" fill="none" stroke="#fff" stroke-miterlimit="10" stroke-width="1.73"/>
        <path id="路径_64199" data-name="路径 64199" d="M147.23,867.67h19.1" transform="translate(1219.07 214.439)" fill="none" stroke="#fff" stroke-miterlimit="10" stroke-width="1.73"/>
      </g>
    </g>
  </g>
</svg>
